<svg width="464" height="48" viewBox="0 0 464 48" fill="none" xmlns="http://www.w3.org/2000/svg">
<rect x="8.5" y="20.5" width="434" height="7" fill="#F2EACD" stroke="black"/>
<rect x="8" y="20" width="432" height="8" fill="#442508"/>
<rect x="1" y="1" width="46" height="46" rx="23" fill="#442508"/>
<path d="M32.5372 29.7067H18.5467C17.6228 29.7067 16.8718 28.9557 16.8718 28.0318C16.8718 27.108 17.6228 26.3569 18.5467 26.3569C18.6397 26.3636 18.7261 26.3702 18.8192 26.3702H31.7463L36 16.3807H18.8192C18.1146 16.3807 17.4567 16.6333 16.9382 17.1052V15.4702C16.9382 15.417 16.9382 15.3638 16.9316 15.3107C16.8518 14.0745 15.8615 13.0775 14.6253 13.0044C13.9341 12.9645 13.2827 13.1971 12.7776 13.669C12.2858 14.1343 12 14.7923 12 15.4702H12.9305C12.9305 15.0382 13.1033 14.646 13.4157 14.347C13.7281 14.0545 14.1401 13.9083 14.5721 13.9349C15.3298 13.9814 15.9612 14.6128 16.0078 15.3705C16.0078 15.4037 16.0078 15.437 16.0078 15.4702V21.3788V23.5189C15.9945 24.2766 16.2803 24.9944 16.812 25.5328C16.9183 25.6458 17.0379 25.7388 17.1576 25.8319C16.4265 26.2971 15.9413 27.108 15.9413 28.0385C15.9413 28.949 16.4132 29.7532 17.1243 30.2185C16.5328 30.6571 16.1473 31.355 16.1473 32.1459C16.1473 33.4685 17.224 34.5386 18.54 34.5386C19.856 34.5386 20.9327 33.4619 20.9327 32.1459C20.9327 31.5743 20.7333 31.0559 20.401 30.6438H30.6364C30.324 31.0493 30.1379 31.5544 30.1379 32.106C30.1379 33.4286 31.2146 34.4987 32.5306 34.4987C33.8466 34.4987 34.9233 33.422 34.9233 32.106C34.9299 30.7768 33.8599 29.7067 32.5372 29.7067ZM16.9382 23.5256V19.2187C16.9316 18.707 17.1243 18.2284 17.4766 17.8695C17.8355 17.504 18.3074 17.3046 18.8192 17.3046H34.5976L31.1349 25.4331H18.8192C18.3074 25.4331 17.8355 25.2337 17.4766 24.8681C17.1177 24.5159 16.925 24.0307 16.9382 23.5256ZM18.5467 33.6015C17.7358 33.6015 17.0845 32.9435 17.0845 32.1393C17.0845 31.335 17.7425 30.6771 18.5467 30.6771C19.3509 30.6771 20.0089 31.335 20.0089 32.1393C20.0089 32.9435 19.3509 33.6015 18.5467 33.6015ZM32.5372 33.5616C31.733 33.5616 31.075 32.9036 31.075 32.0994C31.075 31.2885 31.733 30.6372 32.5372 30.6372C33.3481 30.6372 33.9994 31.2952 33.9994 32.0994C33.9994 32.9036 33.3415 33.5616 32.5372 33.5616Z" fill="#F2EACD" stroke="#F2EACD" stroke-width="0.5" stroke-miterlimit="10"/>
<rect x="1" y="1" width="46" height="46" rx="23" stroke="#442508" stroke-width="2"/>
<rect x="209" y="1" width="46" height="46" rx="23" fill="#442508"/>
<path d="M231.503 12C228.015 12 225.185 14.8307 225.185 18.3184C225.185 21.8062 228.015 24.6369 231.503 24.6369C234.991 24.6369 237.821 21.8062 237.821 18.3184C237.821 14.8307 234.991 12 231.503 12ZM231.503 23.0295C228.905 23.0295 226.792 20.9166 226.792 18.3184C226.792 15.7203 228.905 13.6074 231.503 13.6074C234.101 13.6074 236.214 15.7203 236.214 18.3184C236.214 20.9065 234.101 23.0295 231.503 23.0295Z" fill="#F2EACD"/>
<path d="M241.006 30.2258V36.8778H239.409V30.2359C239.409 29.7809 239.257 29.3665 238.994 29.0227C238.883 28.8812 238.762 28.7498 238.62 28.6487C238.286 28.3959 237.862 28.2342 237.407 28.2342H225.599C225.144 28.2342 224.719 28.3858 224.386 28.6487C224.244 28.7599 224.113 28.8812 224.012 29.0227C223.759 29.3563 223.597 29.7809 223.597 30.2359V36.8778H222V30.2359C222 28.2544 223.618 26.6369 225.599 26.6369H237.397C239.388 26.6268 241.006 28.2443 241.006 30.2258Z" fill="#F2EACD"/>
<rect x="209" y="1" width="46" height="46" rx="23" stroke="#442508" stroke-width="2"/>
<rect x="417" y="1" width="46" height="46" rx="23" fill="#442508"/>
<path d="M450.921 16H429.07C428.473 16 428 16.4814 428 17.0698V31.1025C428 31.6999 428.481 32.1724 429.07 32.1724H450.921C451.519 32.1724 452 31.6909 452 31.1025V17.0698C452 16.4814 451.519 16 450.921 16ZM450.716 30.2645C450.716 30.6122 450.431 30.8975 450.083 30.8975H429.908C429.56 30.8975 429.275 30.6122 429.275 30.2645V17.9168C429.275 17.5691 429.56 17.2838 429.908 17.2838H450.083C450.431 17.2838 450.716 17.5691 450.716 17.9168V30.2645Z" fill="#F2EACD"/>
<path d="M447.935 18.8531C447.935 18.9779 447.881 19.0849 447.801 19.1651C447.721 19.2454 447.605 19.2989 447.489 19.2989H430.702C430.452 19.2989 430.256 19.1027 430.256 18.8531C430.256 18.7283 430.309 18.6213 430.39 18.5411C430.47 18.4608 430.586 18.4073 430.702 18.4073H447.489C447.739 18.4073 447.935 18.6124 447.935 18.8531Z" fill="#F2EACD"/>
<path d="M442.916 20.8053C442.916 20.9301 442.862 21.0371 442.782 21.1173C442.702 21.1975 442.586 21.251 442.47 21.251H430.702C430.452 21.251 430.256 21.0549 430.256 20.8053C430.256 20.6804 430.309 20.5735 430.39 20.4932C430.47 20.413 430.586 20.3595 430.702 20.3595H442.47C442.711 20.3595 442.916 20.5556 442.916 20.8053Z" fill="#F2EACD"/>
<path d="M449.093 23.48H443.503C443.325 23.48 443.191 23.6226 443.191 23.792V29.3819C443.191 29.5602 443.334 29.6939 443.503 29.6939H449.093C449.272 29.6939 449.405 29.5513 449.405 29.3819V23.792C449.405 23.6226 449.272 23.48 449.093 23.48ZM448.514 28.4904C448.514 28.6687 448.371 28.8024 448.202 28.8024H444.395C444.217 28.8024 444.083 28.6598 444.083 28.4904V24.6835C444.083 24.5142 444.226 24.3715 444.395 24.3715H448.202C448.38 24.3715 448.514 24.5142 448.514 24.6835V28.4904Z" fill="#F2EACD"/>
<rect x="417" y="1" width="46" height="46" rx="23" stroke="#442508" stroke-width="2"/>
</svg>
