<?xml version="1.0" encoding="utf-8"?>
<!-- Generator: Adobe Illustrator 26.0.3, SVG Export Plug-In . SVG Version: 6.00 Build 0)  -->
<svg version="1.1" id="Layer_1" xmlns="http://www.w3.org/2000/svg" xmlns:xlink="http://www.w3.org/1999/xlink" x="0px" y="0px"
	 viewBox="0 0 55.9 334.8" style="enable-background:new 0 0 55.9 334.8;" xml:space="preserve">
<style type="text/css">
	.st0{fill:#422814;}
</style>
<g>
	<g>
		<path class="st0" d="M3.1,57.9V39.7l7.3-2.4V22.5l-7.3-2.4V1.9l50.6,18.5v19L3.1,57.9z M5.1,41.1V55l46.6-17V21.8L5.1,4.8v13.9
			l7.3,2.4v17.7L5.1,41.1z M22,35.6V24.1l17.8,5.8L22,35.6z M24,26.8v6l9.3-3L24,26.8z"/>
	</g>
	<g>
		<path class="st0" d="M3.1,78.9V61.6h50.6v17.3C53.8,78.9,3.1,78.9,3.1,78.9z M5.1,63.6v13.2h46.6V63.6H5.1z"/>
	</g>
	<g>
		<path class="st0" d="M3.1,127.7v-19.1l14.5-7.6H3.1V83.8h50.6v23.7c0,4.1-0.7,7.6-2.2,10.5c-1.5,3-3.5,5.2-6.1,6.7
			c-2.5,1.5-5.5,2.2-8.6,2.2c-3.5,0-6.6-1-9.2-2.9c-2.4-1.7-4.2-4.1-5.4-7.2L3.1,127.7z M5.1,109.8v14.4l18.2-10.3l0.4,1.2
			c1,3.2,2.7,5.6,5.1,7.3c2.3,1.7,5.1,2.5,8.1,2.5c2.8,0,5.4-0.7,7.6-2c2.2-1.3,4-3.3,5.3-5.9c1.3-2.6,2-5.9,2-9.7V85.8H5.1V99h17.4
			v1.6L22,101L5.1,109.8z M30.8,106v-7H41v7c0,1.7-0.5,3-1.4,4s-2.2,1.4-3.7,1.4c-1.7,0-3-0.5-3.9-1.4
			C31.2,109.1,30.8,107.8,30.8,106z M32.8,101v5c0,1.2,0.2,2.1,0.7,2.6c0.5,0.5,1.3,0.8,2.4,0.8c1,0,1.8-0.3,2.3-0.8
			c0.5-0.6,0.8-1.4,0.8-2.6v-5C39,101,32.8,101,32.8,101z"/>
	</g>
	<g>
		<path class="st0" d="M3.1,190.5v-20.6l23.6-4.8l-23.6-4.8v-20.6l50.6-11.6v18.5l-26,3.7l26,5.6v18.2l-26,5.6l26,3.7v18.5
			L3.1,190.5z M5.1,171.6v17.3l46.6,10.7v-14.3l-35.3-5.1l35.3-7.6v-15L16.5,150l35.3-5.1v-14.3L5.1,141.3v17.3l31.6,6.4L5.1,171.6z
			"/>
	</g>
	<g>
		<path class="st0" d="M3.1,250.6v-18.2l7.3-2.4v-14.8l-7.3-2.4v-18.2l50.6,18.5v19L3.1,250.6z M5.1,233.8v13.9l46.6-17v-16.2
			L5.1,197.5v13.9l7.3,2.4v17.7L5.1,233.8z M22,228.3v-11.5l17.8,5.8L22,228.3z M24,219.5v6l9.3-3L24,219.5z"/>
	</g>
	<g>
		<path class="st0" d="M3.1,277.7v-21.1l50.6-17v18.4l-31,9.3l31,9.2v18.4L3.1,277.7z M5.1,258v18.3l46.6,15.7v-14.1l-36-10.7
			l36-10.8v-14.1L5.1,258z"/>
	</g>
	<g>
		<path class="st0" d="M3.1,332.9v-34.4h50.6v34.4H39.6v-17.2h-4v15.1H22.2v-15.1h-4.9v17.2H3.1z M5.1,300.5v30.4h10.1v-17.2h8.9
			v15.1h9.5v-15.1h8v17.2h10.2v-30.4H5.1z"/>
	</g>
</g>
</svg>
