<svg width="407" height="4586" viewBox="0 0 407 4586" fill="none" xmlns="http://www.w3.org/2000/svg">
<path d="M120.077 101.435C94.8557 101.435 82.2448 119.529 82.2448 155.717C82.2448 192.27 93.5764 210.547 116.239 210.547C128.302 210.547 138.171 204.333 145.848 191.905C153.524 179.477 159.921 164.307 165.038 146.396C170.155 128.85 176.004 111.122 182.584 93.2108C189.529 75.6653 200.129 60.6784 214.385 48.2503C229.006 35.8222 247.1 29.6082 268.667 29.6082C360.415 29.6082 406.29 88.6417 406.29 206.709C406.29 249.842 398.065 282.374 381.616 304.306C365.533 326.603 343.052 337.752 314.175 337.752C303.575 337.752 293.34 336.29 283.471 333.366C273.967 330.807 267.204 328.066 263.184 325.141L256.604 320.755V223.706C265.011 231.748 275.612 235.769 288.405 235.769C312.165 235.769 324.045 220.233 324.045 189.163C324.045 150.051 311.617 130.495 286.76 130.495C274.332 130.495 264.463 136.709 257.152 149.137C249.842 161.565 243.993 176.552 239.607 194.098C235.586 212.009 230.468 229.92 224.254 247.831C218.04 265.742 207.623 280.912 193.001 293.34C178.745 305.768 160.103 311.982 137.075 311.982C90.6521 311.982 56.1093 298.092 33.4462 270.311C11.1487 242.531 -2.52446e-06 199.764 0 142.009C2.52447e-06 84.2553 10.2349 44.7777 30.7047 23.5769C46.0571 7.85895 67.258 -1.18239e-06 94.3074 0C104.542 4.47391e-07 115.691 1.0966 127.754 3.2898L136.526 4.93469L136.526 103.629L129.947 102.532C126.292 101.801 123.002 101.435 120.077 101.435Z" fill="#F2EACD"/>
<path d="M402.451 726.188L7.67616 657.102L7.67617 557.86L150.234 583.082V476.163L7.67617 451.49L7.67618 352.248L402.451 421.882L402.451 520.576L235.769 490.967V597.886L402.451 627.494V726.188Z" fill="#F2EACD"/>
<path d="M7.67615 929.752L93.7591 933.042L93.7591 841.476L7.67616 814.609L7.67616 709.884L402.451 850.797V1031.74L7.67615 1033.93L7.67615 929.752ZM306.499 907.272L167.231 863.956V935.784L306.499 941.815V907.272Z" fill="#F2EACD"/>
<path d="M402.451 1314.45C402.451 1356.12 393.313 1385.73 375.036 1403.28C361.146 1416.44 343.601 1423.02 322.4 1423.02C315.089 1423.02 307.413 1422.28 299.371 1420.82L256.604 1413.15C232.844 1408.76 213.654 1401.08 199.032 1390.12C184.411 1379.52 173.993 1367.64 167.779 1354.48L7.67613 1404.37L7.67614 1293.62L155.169 1247.56V1213.57L7.67614 1191.09L7.67614 1085.81L402.451 1155.45L402.451 1314.45ZM316.917 1279.91V1238.79L221.513 1224.53V1262.91C221.513 1282.29 226.082 1296.18 235.22 1304.58C244.724 1312.99 257.152 1317.19 272.505 1317.19C302.113 1317.19 316.917 1304.77 316.917 1279.91Z" fill="#F2EACD"/>
<path d="M402.451 1828.35L203.419 1702.79L7.67612 1758.71L7.67612 1654.53L152.427 1613.41V1570.1L7.67612 1544.33L7.67613 1445.63L402.451 1515.27V1613.96L237.962 1584.9V1619.99L402.451 1724.17V1828.35Z" fill="#F2EACD"/>
<path d="M402.451 2311.11L7.67609 2242.03L7.6761 2142.79L150.234 2168.01V2061.09L7.6761 2036.42L7.67611 1937.17L402.451 2006.81V2105.5L235.768 2075.89V2182.81L402.451 2212.42V2311.11Z" fill="#F2EACD"/>
<path d="M263.732 2510.29L402.451 2602.95V2701.65L159.555 2532.77L7.67608 2505.91L7.67609 2406.66L159.555 2433.53L402.451 2350.19V2454.91L263.732 2497.68V2510.29Z" fill="#F2EACD"/>
<path d="M127.754 2857.67L127.754 2792.42L7.67607 2771.04L7.67607 2672.34L402.451 2741.98V2909.21C402.451 2950.52 392.947 2979.94 373.94 2997.49C359.318 3010.28 340.676 3016.68 318.013 3016.68C310.337 3016.68 302.295 3015.95 293.888 3014.48L231.93 3003.52C201.591 2998.03 176.552 2981.95 156.813 2955.27C137.44 2928.58 127.754 2896.05 127.754 2857.67ZM316.917 2874.67V2825.32L213.288 2807.23V2856.02C213.288 2886 226.63 2903.36 253.314 2908.11L275.794 2911.95C279.084 2912.68 283.47 2913.05 288.953 2913.05C294.436 2913.05 300.468 2910.31 307.047 2904.82C313.627 2899.34 316.917 2889.29 316.917 2874.67Z" fill="#F2EACD"/>
<path d="M7.67605 3297.24L7.67606 3021.99L402.451 3091.63L402.451 3366.87L316.917 3351.52V3174.97L242.896 3162.36L242.896 3308.2L157.362 3292.85V3147L93.2107 3136.04L93.2107 3312.59L7.67605 3297.24Z" fill="#F2EACD"/>
<path d="M402.451 3589.04C402.451 3630.71 393.313 3660.32 375.036 3677.86C361.146 3691.02 343.601 3697.6 322.4 3697.6C315.089 3697.6 307.413 3696.87 299.371 3695.41L256.604 3687.73C232.844 3683.34 213.654 3675.67 199.032 3664.7C184.411 3654.1 173.993 3642.22 167.779 3629.06L7.67603 3678.96L7.67604 3568.2L155.168 3522.14V3488.15L7.67604 3465.67L7.67604 3360.4L402.451 3430.03V3589.04ZM316.917 3554.49V3513.37L221.513 3499.12V3537.5C221.513 3556.87 226.082 3570.76 235.22 3579.17C244.724 3587.57 257.152 3591.78 272.504 3591.78C302.113 3591.78 316.917 3579.35 316.917 3554.49Z" fill="#F2EACD"/>
<path d="M7.67602 3915.41L93.759 3918.7L93.759 3827.14L7.67603 3800.27L7.67603 3695.54L402.451 3836.46L402.451 4017.4L7.67602 4019.59L7.67602 3915.41ZM306.499 3892.93L167.231 3849.62V3921.44L306.499 3927.47V3892.93Z" fill="#F2EACD"/>
<path d="M402.451 4239.8L7.67601 4170.71L7.67601 4071.47L402.451 4141.1V4239.8Z" fill="#F2EACD"/>
<path d="M402.451 4476.81C402.451 4518.48 393.313 4548.09 375.036 4565.63C361.146 4578.79 343.601 4585.37 322.4 4585.37C315.089 4585.37 307.413 4584.64 299.371 4583.18L256.604 4575.5C232.844 4571.12 213.654 4563.44 199.032 4552.47C184.411 4541.87 173.993 4529.99 167.779 4516.83L7.67599 4566.73L7.676 4455.97L155.168 4409.92V4375.92L7.676 4353.44L7.67601 4248.17L402.451 4317.8V4476.81ZM316.917 4442.27V4401.14L221.513 4386.89V4425.27C221.513 4444.64 226.082 4458.53 235.22 4466.94C244.724 4475.35 257.152 4479.55 272.504 4479.55C302.113 4479.55 316.917 4467.12 316.917 4442.27Z" fill="#F2EACD"/>
</svg>
