<?xml version="1.0" encoding="utf-8"?>
<!-- Generator: Adobe Illustrator 26.0.3, SVG Export Plug-In . SVG Version: 6.00 Build 0)  -->
<svg version="1.1" id="Layer_1" xmlns="http://www.w3.org/2000/svg" xmlns:xlink="http://www.w3.org/1999/xlink" x="0px" y="0px"
	 viewBox="0 0 612 792" style="enable-background:new 0 0 612 792;" xml:space="preserve">
<style type="text/css">
	.st0{fill:#FFFFFF;}
</style>
<g>
	<path class="st0" d="M265.4,376.9l-3.3,3.3C263,379,264.1,377.8,265.4,376.9z"/>
</g>
<g>
	<path class="st0" d="M393,380.2l-3.3-3.3C390.9,377.8,392,379,393,380.2z"/>
</g>
<g>
	<g>
		<path d="M296.6,342.3c-42.1,0-76.3,34.2-76.3,76.3s34.2,76.3,76.3,76.3s76.3-34.2,76.3-76.3S338.7,342.3,296.6,342.3z
			 M296.6,473.8c-30.4,0-55.1-24.7-55.1-55.1c0-30.4,24.7-55.2,55.1-55.2s55.1,24.7,55.1,55.2C351.8,449.1,327,473.8,296.6,473.8z"
			/>
	</g>
	<g>
		<path d="M410.8,550.1v74.5c0,3.2-2.6,5.8-5.8,5.8h-9.4c-3.2,0-5.8-2.6-5.8-5.8v-74.3c0-5-1.6-9.8-4.7-13.9
			c-1.5-1.9-2.8-3.2-4.3-4.3c-4.1-3.1-9-4.8-13.9-4.8H226.2c-5.1,0-10,1.7-13.8,4.7c-1.9,1.5-3.3,2.9-4.3,4.3
			c-3.1,4.1-4.8,9-4.8,13.9v74.3c0,3.2-2.6,5.8-5.8,5.8h-9.4c-3.2,0-5.8-2.6-5.8-5.8v-74.3c0-24.2,19.7-43.9,43.9-43.9h140.8
			c11.6,0,22.6,4.5,30.9,12.8C406.3,527.4,410.8,538.4,410.8,550.1z"/>
	</g>
</g>
</svg>
