<?xml version="1.0" encoding="utf-8"?>
<!-- Generator: Adobe Illustrator 26.0.3, SVG Export Plug-In . SVG Version: 6.00 Build 0)  -->
<svg version="1.1" id="Layer_1" xmlns="http://www.w3.org/2000/svg" xmlns:xlink="http://www.w3.org/1999/xlink" x="0px" y="0px"
	 viewBox="0 0 612 792" style="enable-background:new 0 0 612 792;" xml:space="preserve">
<g>
	<path d="M380.1,394.7L342.4,357c7.3-8.6,12.6-19,15.3-30.7c4.2-18.8,0.9-38.1-9.5-54.4c-10.3-16.3-26.3-27.6-45.1-31.8
		c-38.8-8.7-77.5,15.8-86.2,54.6c-8.7,38.8,15.8,77.5,54.6,86.2c5.3,1.2,10.6,1.8,15.8,1.8c16.5,0,32.2-5.7,44.8-15.6
		c0.1-0.1,0.2-0.2,0.3-0.3l37.8,37.8c1.2,1.2,3.3,1.2,4.5,0l5.4-5.4C381.3,398,381.3,395.9,380.1,394.7z M318.4,359.6
		c-13.1,8.3-28.7,11-43.8,7.6c-31.3-7-51-38.2-44-69.5c6.1-27,30.1-45.4,56.7-45.4c4.2,0,8.5,0.5,12.7,1.4
		c15.2,3.4,28.1,12.5,36.4,25.6c8.3,13.1,11,28.7,7.6,43.8C340.6,338.4,331.5,351.3,318.4,359.6z"/>
</g>
</svg>
