<?xml version="1.0" encoding="utf-8"?>
<!-- Generator: Adobe Illustrator 26.0.3, SVG Export Plug-In . SVG Version: 6.00 Build 0)  -->
<svg version="1.1" id="Layer_1" xmlns="http://www.w3.org/2000/svg" xmlns:xlink="http://www.w3.org/1999/xlink" x="0px" y="0px"
	 viewBox="0 0 334.79 55.89" style="enable-background:new 0 0 334.79 55.89;" xml:space="preserve">
<style type="text/css">
	.st0{fill:#422814;}
</style>
<g>
	<g>
		<path class="st0" d="M58.38,53.28H40.15l-2.4-7.35H22.98l-2.4,7.35H2.42L20.94,2.65h18.98L58.38,53.28z M41.6,51.28h13.92
			L38.53,4.65H22.34L5.28,51.28h13.85l2.4-7.35H39.2L41.6,51.28z M36.14,34.46H24.59l5.77-17.77L36.14,34.46z M27.34,32.46h6.04
			l-3.02-9.29L27.34,32.46z"/>
	</g>
	<g>
		<path class="st0" d="M79.38,53.28H62.13V2.65h17.25V53.28z M64.13,51.28h13.25V4.65H64.13V51.28z"/>
	</g>
	<g>
		<path class="st0" d="M128.18,53.28h-19.08l-7.6-14.51v14.51H84.25V2.65h23.67c4.08,0,7.62,0.74,10.54,2.2
			c2.96,1.48,5.21,3.53,6.7,6.09c1.48,2.55,2.23,5.46,2.23,8.64c0,3.45-0.98,6.56-2.9,9.24c-1.72,2.39-4.12,4.2-7.15,5.38
			L128.18,53.28z M110.31,51.28h14.44L114.41,33.1l1.17-0.38c3.17-1.03,5.62-2.73,7.29-5.06c1.68-2.33,2.53-5.05,2.53-8.07
			c0-2.83-0.66-5.4-1.96-7.64c-1.29-2.22-3.27-4.01-5.87-5.31c-2.64-1.32-5.89-1.99-9.65-1.99H86.25v46.63H99.5V33.84h1.61
			l0.35,0.54L110.31,51.28z M106.54,25.67H99.5V15.43h7.04c1.68,0,3.01,0.46,3.96,1.38c0.95,0.92,1.44,2.18,1.44,3.74
			c0,1.71-0.48,3.01-1.43,3.87C109.59,25.25,108.25,25.67,106.54,25.67z M101.5,23.67h5.04c1.2,0,2.08-0.25,2.63-0.74
			c0.51-0.46,0.77-1.26,0.77-2.38c0-1.01-0.27-1.76-0.83-2.3c-0.56-0.54-1.42-0.82-2.57-0.82h-5.04V23.67z"/>
	</g>
	<g>
		<path class="st0" d="M191,53.28h-20.57l-4.82-23.61l-4.82,23.61h-20.57L128.64,2.65h18.54l3.73,25.97l5.59-25.97h18.24l5.59,25.97
			l3.73-25.97h18.54L191,53.28z M172.06,51.28h17.34l10.67-46.63h-14.29l-5.07,35.3l-7.6-35.3h-15.01l-7.6,35.3l-5.07-35.3h-14.29
			l10.67,46.63h17.34l6.45-31.62L172.06,51.28z"/>
	</g>
	<g>
		<path class="st0" d="M251.05,53.28h-18.23l-2.4-7.35h-14.76l-2.4,7.35h-18.16l18.52-50.63h18.98L251.05,53.28z M234.27,51.28
			h13.92L231.2,4.65h-16.18l-17.06,46.63h13.85l2.4-7.35h17.66L234.27,51.28z M228.81,34.46h-11.54l5.77-17.77L228.81,34.46z
			 M220.02,32.46h6.04l-3.02-9.29L220.02,32.46z"/>
	</g>
	<g>
		<path class="st0" d="M278.16,53.28h-21.15L239.99,2.65h18.35l9.28,30.96l9.22-30.96h18.35L278.16,53.28z M258.45,51.28h18.28
			L292.4,4.65h-14.07l-10.7,35.95L256.85,4.65h-14.08L258.45,51.28z"/>
	</g>
	<g>
		<path class="st0" d="M333.39,53.28h-34.42V2.65h34.42v14.16h-17.17v3.98h15.11v13.47h-15.11v4.87h17.17V53.28z M300.97,51.28
			h30.42V41.13h-17.17v-8.87h15.11v-9.47h-15.11v-7.98h17.17V4.65h-30.42V51.28z"/>
	</g>
</g>
</svg>
