<?xml version="1.0" encoding="utf-8"?>
<!-- Generator: Adobe Illustrator 26.0.3, SVG Export Plug-In . SVG Version: 6.00 Build 0)  -->
<svg version="1.1" id="Layer_1" xmlns="http://www.w3.org/2000/svg" xmlns:xlink="http://www.w3.org/1999/xlink" x="0px" y="0px"
	 viewBox="0 0 302.56 101.21" style="enable-background:new 0 0 302.56 101.21;" xml:space="preserve">
<style type="text/css">
	.st0{fill:#422814;}
</style>
<g>
	<path class="st0" d="M47.25,43.82c2.17-2.99,3.62-6.53,4.33-10.51l0.21-1.17H33.88l-0.26,0.58c-0.66,1.44-1.57,2.53-2.77,3.33
		c-1.2,0.79-2.53,1.17-4.09,1.17c-2.26,0-3.98-0.82-5.28-2.5c-1.35-1.73-2.03-4.14-2.03-7.15s0.68-5.41,2.03-7.15
		c1.3-1.68,3.03-2.49,5.28-2.49c1.56,0,2.89,0.38,4.09,1.17c1.18,0.78,2.12,1.9,2.77,3.32l0.26,0.59h17.91l-0.21-1.18
		c-0.71-3.98-2.16-7.51-4.33-10.5c-2.17-3.01-5.03-5.37-8.48-7.02c-3.44-1.64-7.39-2.47-11.73-2.47c-5.06,0-9.52,1.1-13.28,3.26
		c-1.88,1.09-3.56,2.4-5.02,3.94c-1.46,1.53-2.7,3.28-3.71,5.23C3.02,18.15,2,22.63,2,27.57C2,32.52,3.02,37,5.03,40.88
		c1.54,2.98,3.61,5.48,6.18,7.45H0.62v14.09H13.4v36.54h17.25V62.42h12.91V48.33h-0.7C44.54,47.06,46.01,45.54,47.25,43.82z
		 M39.25,48.33c-0.44,0.25-0.88,0.48-1.34,0.7c-1.11,0.53-2.28,0.96-3.5,1.3h5.36h1.79v10.09H28.65v36.54H15.4V60.42H2.62V50.33
		h11.67h5.31c-1.72-0.49-3.33-1.15-4.8-2c-0.01,0-0.03-0.01-0.04-0.02c-3.43-1.98-6.11-4.79-7.96-8.35C4.94,36.37,4,32.2,4,27.57
		c0-2.31,0.24-4.51,0.7-6.58c0.47-2.07,1.17-4.01,2.1-5.8c1.85-3.56,4.53-6.38,7.96-8.35c3.45-1.99,7.58-3,12.28-3
		c4.04,0,7.7,0.77,10.87,2.28c3.15,1.5,5.75,3.64,7.72,6.38c1.77,2.45,3.03,5.31,3.75,8.51H35.15c-0.79-1.5-1.87-2.7-3.2-3.58
		c-1.51-1-3.26-1.5-5.19-1.5c-2.87,0-5.19,1.1-6.87,3.27c-1.62,2.09-2.44,4.91-2.44,8.37c0,3.47,0.82,6.28,2.44,8.38
		c1.68,2.17,3.99,3.27,6.87,3.27c1.93,0,3.68-0.51,5.19-1.51c1.34-0.88,2.41-2.08,3.2-3.57h14.23c-0.72,3.2-1.98,6.06-3.75,8.51
		C43.95,44.98,41.8,46.89,39.25,48.33z"/>
	<path class="st0" d="M79.79,15.58c-3.36,0-6,1.1-7.84,3.28c-1.79,2.12-2.71,5.01-2.71,8.58c0,3.52,0.92,6.38,2.71,8.51
		c1.84,2.17,4.48,3.27,7.84,3.27c3.32,0,5.93-1.1,7.77-3.27c1.8-2.13,2.71-4.99,2.71-8.51c0-3.57-0.91-6.46-2.71-8.58
		C85.72,16.68,83.11,15.58,79.79,15.58z M86.04,34.65h-0.01c-1.46,1.73-3.5,2.57-6.24,2.57c-2.78,0-4.85-0.84-6.31-2.57
		c-1.48-1.75-2.24-4.18-2.24-7.21c0-3.09,0.76-5.54,2.24-7.29c1.46-1.73,3.53-2.57,6.31-2.57c2.74,0,4.78,0.84,6.24,2.57
		c1.49,1.75,2.24,4.2,2.24,7.29C88.27,30.47,87.52,32.9,86.04,34.65z"/>
	<path class="st0" d="M102.26,40.79c2.3-3.94,3.47-8.43,3.47-13.35c0-4.92-1.17-9.41-3.47-13.35c-2.3-3.94-5.47-7.06-9.41-9.27
		c-3.93-2.2-8.33-3.32-13.06-3.32S70.66,2.62,66.7,4.82c-3.96,2.21-7.15,5.32-9.48,9.26c-2.32,3.94-3.5,8.44-3.5,13.36
		c0,4.92,1.18,9.41,3.5,13.35c1.16,1.97,2.54,3.73,4.13,5.29c0.83,0.81,1.71,1.56,2.65,2.25H47.06v50.63h17.25V84.45l7.6,14.51
		h19.08L80.15,79.88c3.03-1.18,5.43-2.99,7.15-5.38c1.93-2.68,2.9-5.79,2.9-9.24c0-3.18-0.75-6.09-2.23-8.64
		c-0.8-1.37-1.81-2.6-3.04-3.65c2.78-0.53,5.41-1.5,7.89-2.89C96.78,47.85,99.96,44.72,102.26,40.79z M82.62,51.28
		c-0.93,0.11-1.87,0.16-2.83,0.16c-0.59,0-1.17-0.02-1.74-0.06c0.82,0.26,1.59,0.58,2.32,0.94c0.63,0.31,1.22,0.66,1.78,1.02
		c1.74,1.17,3.11,2.6,4.09,4.28c1.3,2.24,1.96,4.81,1.96,7.64c0,3.02-0.85,5.74-2.52,8.07c-1.68,2.33-4.13,4.04-7.3,5.06l-1.16,0.38
		l10.33,18.19H73.12l-8.86-16.91l-0.35-0.54h-1.6v17.45H49.06V50.33h18.1h3.57c0.61,0,1.2,0.02,1.78,0.06
		c-1.68-0.5-3.3-1.18-4.83-2.05c-0.01,0-0.01-0.01-0.02-0.01c-3.64-2.06-6.57-4.94-8.71-8.56c-2.14-3.62-3.23-7.77-3.23-12.33
		c0-4.56,1.09-8.71,3.23-12.34c2.14-3.63,5.07-6.5,8.72-8.53C71.33,4.53,75.4,3.5,79.79,3.5s8.45,1.03,12.08,3.07
		c3.63,2.03,6.54,4.9,8.66,8.52c2.12,3.64,3.2,7.79,3.2,12.35c0,4.56-1.08,8.71-3.2,12.34c-2.12,3.62-5.04,6.51-8.69,8.56
		C88.99,49.95,85.9,50.93,82.62,51.28z"/>
	<path class="st0" d="M206.61,43.82c2.17-2.99,3.62-6.53,4.33-10.51l0.21-1.17h-17.91l-0.26,0.58c-0.66,1.44-1.57,2.53-2.77,3.33
		c-1.2,0.79-2.53,1.17-4.09,1.17c-2.26,0-3.99-0.82-5.29-2.5c-1.34-1.73-2.02-4.14-2.02-7.15s0.68-5.41,2.02-7.15
		c1.3-1.68,3.04-2.49,5.29-2.49c1.56,0,2.89,0.38,4.09,1.17c1.18,0.78,2.12,1.9,2.77,3.32l0.26,0.59h17.91l-0.21-1.18
		c-0.71-3.98-2.16-7.51-4.33-10.5c-2.17-3.01-5.03-5.37-8.48-7.02c-3.44-1.64-7.39-2.47-11.73-2.47c-5.06,0-9.52,1.1-13.28,3.26
		c-1.88,1.09-3.56,2.4-5.02,3.94c-1.46,1.53-2.7,3.28-3.71,5.23c-2.01,3.88-3.03,8.36-3.03,13.3c0,4.95,1.02,9.43,3.03,13.31
		c1.54,2.98,3.61,5.48,6.18,7.45h-12.71v-46h-17.25v22.48l-14.6-22.48h-16.79v50.63h2.32l-16.83,46h18.16l2.4-7.35h14.77l2.4,7.35
		h18.23l-18.45-50.63h-5.75v-17.5l14.61,22.13h2.35v9.46h12.78v36.54h17.25V62.42h12.91V53.3h0.03c4.34,0,8.29-0.83,11.73-2.46
		C201.58,49.19,204.44,46.83,206.61,43.82z M186.4,51.3h-0.03c-0.68,0-1.35-0.02-2-0.07v2.01v7.18h-12.91v36.54h-13.25V60.42h-12.78
		v-7.46v-2h-2h-1.28l-17.68-26.79v24.16v2h2h4.35l16.99,46.63h-13.92l-2.4-7.35h-17.66l-2.41,7.35H97.57l16.1-44l0.73-2h-2.13h-1.05
		V4.33h13.71l17.68,27.24V4.33h13.25v44v2h2h15.79h5.31c-1.72-0.49-3.33-1.15-4.8-2c-0.01,0-0.03-0.01-0.04-0.02
		c-3.43-1.98-6.11-4.79-7.96-8.35c-1.86-3.59-2.8-7.76-2.8-12.39c0-2.31,0.24-4.51,0.7-6.58c0.47-2.07,1.17-4.01,2.1-5.8
		c1.85-3.56,4.53-6.38,7.96-8.35c3.45-1.99,7.58-3,12.28-3c4.04,0,7.7,0.77,10.87,2.28c3.15,1.5,5.75,3.64,7.72,6.38
		c1.77,2.45,3.03,5.31,3.75,8.51h-14.23c-0.79-1.5-1.87-2.7-3.2-3.58c-1.51-1-3.26-1.5-5.19-1.5c-2.87,0-5.19,1.1-6.87,3.27
		c-1.62,2.09-2.44,4.91-2.44,8.37c0,3.47,0.82,6.28,2.44,8.38c1.68,2.17,3.99,3.27,6.87,3.27c1.93,0,3.68-0.51,5.19-1.51
		c1.34-0.88,2.41-2.08,3.2-3.57h14.23c-0.72,3.2-1.98,6.06-3.75,8.51c-1.97,2.73-4.57,4.88-7.72,6.38
		C194.1,50.54,190.44,51.3,186.4,51.3z"/>
	<path class="st0" d="M284.5,52.96h16.79V2.33h-17.25v22.48l-14.6-22.48h-16.8v46h-3.77V38.8H231.7v-4.87h15.11V20.46H231.7v-3.98
		h17.17V2.33h-34.42v45.2c-0.41-0.02-0.84-0.03-1.26-0.03c-4.73,0-9.14,1.12-13.09,3.32c-3.97,2.21-7.15,5.32-9.48,9.26
		c-2.32,3.94-3.5,8.44-3.5,13.36c0,4.92,1.18,9.41,3.5,13.35c1.16,1.97,2.54,3.73,4.12,5.29c1.58,1.55,3.37,2.88,5.35,4
		c3.96,2.23,8.36,3.36,13.1,3.36c4.69,0,9.07-1.13,13.02-3.36c3.97-2.23,7.14-5.36,9.44-9.29c2.31-3.94,3.47-8.43,3.47-13.35
		c0-4.92-1.16-9.41-3.47-13.35c-1.64-2.8-3.71-5.19-6.19-7.13h13.16v46h17.25V84.45l7.59,14.51h19.09l-10.84-19.08
		c3.03-1.18,5.43-2.99,7.15-5.38c1.93-2.68,2.9-5.79,2.9-9.24c0-3.18-0.75-6.09-2.23-8.64c-1.49-2.56-3.74-4.61-6.7-6.09
		c-2.02-1.01-4.35-1.68-6.94-1.98V30.83L284.5,52.96z M267.89,24.17v24.2v2.01c0.69,0.03,1.36,0.09,2,0.18
		c2.27,0.29,4.29,0.88,6.04,1.76c2.61,1.3,4.58,3.08,5.87,5.3c1.3,2.24,1.96,4.81,1.96,7.64c0,3.02-0.85,5.74-2.52,8.07
		c-1.68,2.33-4.13,4.04-7.3,5.06l-1.16,0.38l10.33,18.19h-14.43l-8.86-16.91l-0.35-0.54h-1.6v17.45h-13.25v-44v-2h-2h-16.13h-4.72
		c1.21,0.44,2.38,0.98,3.5,1.61c0.22,0.12,0.43,0.25,0.64,0.39c3.33,1.98,6.03,4.73,8.02,8.13c2.12,3.64,3.19,7.79,3.19,12.35
		c0,4.56-1.07,8.71-3.19,12.34c-2.12,3.62-5.05,6.51-8.7,8.56c-3.65,2.06-7.7,3.1-12.04,3.1c-4.39,0-8.46-1.04-12.11-3.1h-0.01
		c-3.65-2.06-6.58-4.94-8.73-8.57c-2.14-3.62-3.22-7.77-3.22-12.33c0-4.56,1.08-8.71,3.22-12.34c2.15-3.63,5.08-6.5,8.73-8.53
		c3.65-2.04,7.73-3.07,12.12-3.07c0.42,0,0.84,0.01,1.26,0.03c0.67,0.03,1.34,0.09,2,0.17v-2.01V4.33h30.42v10.15H229.7v7.98h15.11
		v9.47H229.7v8.87h17.17v7.53v2h2h3.77h2v-2v-44h13.71l17.69,27.24V4.33h13.25v46.63h-13.72L267.89,24.17z"/>
	<path class="st0" d="M69.35,61.1h-7.04v10.24h7.04c1.72,0,3.05-0.42,3.97-1.25c0.95-0.86,1.43-2.16,1.43-3.87
		c0-1.55-0.49-2.81-1.44-3.74C72.36,61.57,71.03,61.1,69.35,61.1z M71.98,68.61c-0.54,0.49-1.43,0.73-2.63,0.73h-5.04V63.1h5.04
		c1.15,0,2.01,0.28,2.57,0.82c0.56,0.54,0.83,1.29,0.83,2.3C72.75,67.34,72.49,68.14,71.98,68.61z"/>
	<path class="st0" d="M116.88,80.14h11.55l-5.77-17.77L116.88,80.14z M119.63,78.14l3.03-9.3l3.01,9.3H119.63z"/>
	<path class="st0" d="M213.19,61.58c-3.36,0-6,1.1-7.84,3.28c-1.8,2.12-2.71,5.01-2.71,8.58c0,3.52,0.91,6.38,2.71,8.51
		c1.84,2.17,4.48,3.27,7.84,3.27c3.31,0,5.93-1.1,7.77-3.27c1.79-2.13,2.71-4.99,2.71-8.51c0-3.57-0.91-6.46-2.71-8.58
		C219.12,62.68,216.5,61.58,213.19,61.58z M219.43,80.65c-1.46,1.73-3.5,2.57-6.24,2.57c-2.79,0-4.85-0.84-6.31-2.57
		c-1.49-1.75-2.24-4.18-2.24-7.21c0-3.09,0.75-5.54,2.24-7.29c1.46-1.73,3.52-2.57,6.31-2.57c2.74,0,4.78,0.84,6.24,2.57
		c1.49,1.75,2.24,4.2,2.24,7.29C221.67,76.47,220.92,78.9,219.43,80.65z"/>
	<path class="st0" d="M257.87,61.1v10.24h7.04c1.71,0,3.05-0.42,3.97-1.25c0.95-0.86,1.43-2.16,1.43-3.87
		c0-1.55-0.49-2.81-1.44-3.74c-0.95-0.91-2.28-1.38-3.96-1.38H257.87z M268.31,66.22c0,1.12-0.26,1.92-0.77,2.39
		c-0.54,0.49-1.43,0.73-2.63,0.73h-5.04V63.1h5.04c1.14,0,2.01,0.28,2.57,0.82C268.04,64.46,268.31,65.21,268.31,66.22z"/>
</g>
</svg>
