<?xml version="1.0" encoding="utf-8"?>
<!-- Generator: Adobe Illustrator 26.0.3, SVG Export Plug-In . SVG Version: 6.00 Build 0)  -->
<svg version="1.1" id="Layer_1" xmlns="http://www.w3.org/2000/svg" xmlns:xlink="http://www.w3.org/1999/xlink" x="0px" y="0px"
	 viewBox="0 0 101.2 302.6" style="enable-background:new 0 0 101.2 302.6;" xml:space="preserve">
<style type="text/css">
	.st0{fill:#422814;}
</style>
<g>
	<path class="st0" d="M56.9,47.4c3,2.2,6.5,3.6,10.5,4.3l1.2,0.2V34.1L68,33.8c-1.4-0.7-2.5-1.6-3.3-2.8c-0.8-1.2-1.2-2.5-1.2-4.1
		c0-2.3,0.8-4,2.5-5.3c1.7-1.4,4.1-2,7.2-2c3,0,5.4,0.7,7.1,2c1.7,1.3,2.5,3,2.5,5.3c0,1.6-0.4,2.9-1.2,4.1
		c-0.8,1.2-1.9,2.1-3.3,2.8l-0.6,0.3V52l1.2-0.2c4-0.7,7.5-2.2,10.5-4.3c3-2.2,5.4-5,7-8.5c1.6-3.4,2.5-7.4,2.5-11.7
		c0-5.1-1.1-9.5-3.3-13.3c-1.1-1.9-2.4-3.6-3.9-5c-1.5-1.5-3.3-2.7-5.2-3.7c-3.9-2-8.4-3-13.3-3c-5,0-9.4,1-13.3,3
		c-3,1.5-5.5,3.6-7.5,6.2V0.8H38.3v12.8H1.8v17.2h36.5v12.9h14.1V43C53.7,44.7,55.2,46.2,56.9,47.4z M52.4,39.4
		c-0.2-0.4-0.5-0.9-0.7-1.3c-0.5-1.1-1-2.3-1.3-3.5V40v1.8H40.3V28.8H3.8V15.6h36.5V2.8h10.1v11.7v5.3c0.5-1.7,1.2-3.3,2-4.8
		c0,0,0,0,0,0c2-3.4,4.8-6.1,8.4-8c3.6-1.9,7.8-2.8,12.4-2.8c2.3,0,4.5,0.2,6.6,0.7c2.1,0.5,4,1.2,5.8,2.1c3.6,1.8,6.4,4.5,8.3,8
		c2,3.5,3,7.6,3,12.3c0,4-0.8,7.7-2.3,10.9c-1.5,3.2-3.6,5.8-6.4,7.7c-2.4,1.8-5.3,3-8.5,3.8V35.3c1.5-0.8,2.7-1.9,3.6-3.2
		c1-1.5,1.5-3.3,1.5-5.2c0-2.9-1.1-5.2-3.3-6.9c-2.1-1.6-4.9-2.4-8.4-2.4c-3.5,0-6.3,0.8-8.4,2.4c-2.2,1.7-3.3,4-3.3,6.9
		c0,1.9,0.5,3.7,1.5,5.2c0.9,1.3,2.1,2.4,3.6,3.2v14.2c-3.2-0.7-6.1-2-8.5-3.8C55.8,44.1,53.9,42,52.4,39.4z"/>
	<path class="st0" d="M85.2,80c0-3.4-1.1-6-3.3-7.8c-2.1-1.8-5-2.7-8.6-2.7c-3.5,0-6.4,0.9-8.5,2.7c-2.2,1.8-3.3,4.5-3.3,7.8
		c0,3.3,1.1,5.9,3.3,7.8c2.1,1.8,5,2.7,8.5,2.7c3.6,0,6.5-0.9,8.6-2.7C84.1,85.9,85.2,83.3,85.2,80z M66.1,86.2L66.1,86.2
		c-1.7-1.5-2.6-3.5-2.6-6.2c0-2.8,0.8-4.8,2.6-6.3c1.8-1.5,4.2-2.2,7.2-2.2c3.1,0,5.5,0.8,7.3,2.2c1.7,1.5,2.6,3.5,2.6,6.3
		c0,2.7-0.8,4.8-2.6,6.2c-1.8,1.5-4.2,2.2-7.3,2.2C70.3,88.5,67.9,87.7,66.1,86.2z"/>
	<path class="st0" d="M60,102.4c3.9,2.3,8.4,3.5,13.3,3.5s9.4-1.2,13.3-3.5c3.9-2.3,7.1-5.5,9.3-9.4c2.2-3.9,3.3-8.3,3.3-13.1
		s-1.1-9.1-3.3-13.1c-2.2-4-5.3-7.2-9.3-9.5c-3.9-2.3-8.4-3.5-13.4-3.5s-9.4,1.2-13.3,3.5c-2,1.2-3.7,2.5-5.3,4.1
		c-0.8,0.8-1.6,1.7-2.2,2.7V47.2H1.8v17.2h14.5L1.8,72.1v19.1l19.1-10.8c1.2,3,3,5.4,5.4,7.2c2.7,1.9,5.8,2.9,9.2,2.9
		c3.2,0,6.1-0.8,8.6-2.2c1.4-0.8,2.6-1.8,3.7-3c0.5,2.8,1.5,5.4,2.9,7.9C52.9,97,56,100.1,60,102.4z M49.5,82.8
		c-0.1-0.9-0.2-1.9-0.2-2.8c0-0.6,0-1.2,0.1-1.7c-0.3,0.8-0.6,1.6-0.9,2.3c-0.3,0.6-0.7,1.2-1,1.8c-1.2,1.7-2.6,3.1-4.3,4.1
		c-2.2,1.3-4.8,2-7.6,2c-3,0-5.7-0.8-8.1-2.5c-2.3-1.7-4-4.1-5.1-7.3L22,77.4L3.8,87.7V73.3l16.9-8.9l0.5-0.3v-1.6H3.8V49.2h46.6
		v18.1v3.6c0,0.6,0,1.2-0.1,1.8c0.5-1.7,1.2-3.3,2-4.8c0,0,0,0,0,0c2.1-3.6,4.9-6.6,8.6-8.7c3.6-2.1,7.8-3.2,12.3-3.2
		c4.6,0,8.7,1.1,12.3,3.2s6.5,5.1,8.5,8.7c2,3.7,3.1,7.7,3.1,12.1s-1,8.4-3.1,12.1c-2,3.6-4.9,6.5-8.5,8.7
		c-3.6,2.1-7.8,3.2-12.3,3.2s-8.7-1.1-12.3-3.2c-3.6-2.1-6.5-5-8.6-8.7C50.8,89.2,49.8,86.1,49.5,82.8z"/>
	<path class="st0" d="M56.9,206.8c3,2.2,6.5,3.6,10.5,4.3l1.2,0.2v-17.9l-0.6-0.3c-1.4-0.7-2.5-1.6-3.3-2.8
		c-0.8-1.2-1.2-2.5-1.2-4.1c0-2.3,0.8-4,2.5-5.3c1.7-1.3,4.1-2,7.2-2c3,0,5.4,0.7,7.1,2c1.7,1.3,2.5,3,2.5,5.3
		c0,1.6-0.4,2.9-1.2,4.1c-0.8,1.2-1.9,2.1-3.3,2.8l-0.6,0.3v17.9l1.2-0.2c4-0.7,7.5-2.2,10.5-4.3c3-2.2,5.4-5,7-8.5
		c1.6-3.4,2.5-7.4,2.5-11.7c0-5.1-1.1-9.5-3.3-13.3c-1.1-1.9-2.4-3.6-3.9-5c-1.5-1.5-3.3-2.7-5.2-3.7c-3.9-2-8.4-3-13.3-3
		c-4.9,0-9.4,1-13.3,3c-3,1.5-5.5,3.6-7.5,6.2V158h46v-17.2H75.9l22.5-14.6v-16.8H47.8v2.3l-46-16.8v18.2l7.3,2.4v14.8l-7.3,2.4
		v18.2l50.6-18.4v-5.8h17.5l-22.1,14.6v2.4h-9.5v12.8H1.8v17.2h36.5v12.9h9.1v0c0,4.3,0.8,8.3,2.5,11.7
		C51.6,201.8,53.9,204.6,56.9,206.8z M49.5,186.6L49.5,186.6c0-0.7,0-1.4,0.1-2h-2h-7.2v-12.9H3.8v-13.2h36.5v-12.8h7.5h2v-2v-1.3
		l26.8-17.7H52.4h-2v2v4.4L3.8,148v-13.9l7.3-2.4V114l-7.3-2.4V97.8l44,16.1l2,0.7v-2.1v-1.1h46.6v13.7l-27.2,17.7h27.2v13.2h-44h-2
		v2v15.8v5.3c0.5-1.7,1.2-3.3,2-4.8c0,0,0,0,0,0c2-3.4,4.8-6.1,8.4-8c3.6-1.9,7.8-2.8,12.4-2.8c2.3,0,4.5,0.2,6.6,0.7
		c2.1,0.5,4,1.2,5.8,2.1c3.6,1.9,6.4,4.5,8.3,8c2,3.4,3,7.6,3,12.3c0,4-0.8,7.7-2.3,10.9c-1.5,3.1-3.6,5.8-6.4,7.7
		c-2.4,1.8-5.3,3-8.5,3.8v-14.2c1.5-0.8,2.7-1.9,3.6-3.2c1-1.5,1.5-3.3,1.5-5.2c0-2.9-1.1-5.2-3.3-6.9c-2.1-1.6-4.9-2.4-8.4-2.4
		c-3.5,0-6.3,0.8-8.4,2.4c-2.2,1.7-3.3,4-3.3,6.9c0,1.9,0.5,3.7,1.5,5.2c0.9,1.3,2.1,2.4,3.6,3.2v14.2c-3.2-0.7-6.1-2-8.5-3.8
		c-2.7-2-4.9-4.6-6.4-7.7C50.2,194.3,49.5,190.6,49.5,186.6z"/>
	<path class="st0" d="M47.8,284.7v16.8h50.6v-17.2H75.9l22.5-14.6v-16.8h-46v-3.8H62v-17.2h4.9V247h13.5v-15.1h4v17.2h14.2v-34.4
		H53.2c0-0.4,0-0.8,0-1.3c0-4.7-1.1-9.1-3.3-13.1c-2.2-4-5.3-7.1-9.3-9.5c-3.9-2.3-8.4-3.5-13.4-3.5s-9.4,1.2-13.3,3.5
		c-2,1.2-3.7,2.5-5.3,4.1c-1.6,1.6-2.9,3.4-4,5.4c-2.2,4-3.4,8.4-3.4,13.1c0,4.7,1.1,9.1,3.4,13c2.2,4,5.4,7.1,9.3,9.4
		c3.9,2.3,8.4,3.5,13.3,3.5s9.4-1.2,13.4-3.5c2.8-1.6,5.2-3.7,7.1-6.2v13.2h-46v17.2h14.5l-14.5,7.6v19.1l19.1-10.8
		c1.2,3,3,5.4,5.4,7.1c2.7,1.9,5.8,2.9,9.2,2.9c3.2,0,6.1-0.8,8.6-2.2c2.6-1.5,4.6-3.7,6.1-6.7c1-2,1.7-4.4,2-6.9h17.7L47.8,284.7z
		 M76.6,268.1H52.4h-2c0,0.7-0.1,1.4-0.2,2c-0.3,2.3-0.9,4.3-1.8,6c-1.3,2.6-3.1,4.6-5.3,5.9c-2.2,1.3-4.8,2-7.6,2
		c-3,0-5.7-0.9-8.1-2.5c-2.3-1.7-4-4.1-5.1-7.3L22,273L3.8,283.3v-14.4l16.9-8.9l0.5-0.4v-1.6H3.8v-13.2h44h2v-2v-16.1V222
		c-0.4,1.2-1,2.4-1.6,3.5c-0.1,0.2-0.2,0.4-0.4,0.6c-2,3.3-4.7,6-8.1,8c-3.6,2.1-7.8,3.2-12.4,3.2c-4.6,0-8.7-1.1-12.3-3.2
		c-3.6-2.1-6.5-5.1-8.6-8.7c-2.1-3.6-3.1-7.7-3.1-12c0-4.4,1-8.5,3.1-12.1v0c2.1-3.6,4.9-6.6,8.6-8.7c3.6-2.1,7.8-3.2,12.3-3.2
		c4.6,0,8.7,1.1,12.3,3.2c3.6,2.1,6.5,5.1,8.5,8.7c2,3.6,3.1,7.7,3.1,12.1c0,0.4,0,0.8,0,1.3c0,0.7-0.1,1.3-0.2,2h2h43.4v30.4H86.3
		v-17.2h-8V245h-9.5v-15.1H60v17.2h-7.5h-2v2v3.8v2h2h44v13.7l-27.2,17.7h27.2v13.2H49.8v-13.7L76.6,268.1z"/>
	<path class="st0" d="M39.7,69.5v-7H29.4v7c0,1.7,0.4,3.1,1.2,4c0.9,0.9,2.2,1.4,3.9,1.4c1.6,0,2.8-0.5,3.7-1.4
		C39.2,72.5,39.7,71.2,39.7,69.5z M32.1,72.2c-0.5-0.5-0.7-1.4-0.7-2.6v-5h6.2v5c0,1.2-0.3,2-0.8,2.6s-1.3,0.8-2.3,0.8
		C33.4,72.9,32.6,72.7,32.1,72.2z"/>
	<path class="st0" d="M20.6,117.1v11.6l17.8-5.8L20.6,117.1z M22.6,119.8l9.3,3l-9.3,3V119.8z"/>
	<path class="st0" d="M39.2,213.4c0-3.4-1.1-6-3.3-7.8c-2.1-1.8-5-2.7-8.6-2.7c-3.5,0-6.4,0.9-8.5,2.7c-2.2,1.8-3.3,4.5-3.3,7.8
		c0,3.3,1.1,5.9,3.3,7.8c2.1,1.8,5,2.7,8.5,2.7c3.6,0,6.5-0.9,8.6-2.7C38.1,219.3,39.2,216.7,39.2,213.4z M20.1,219.6
		c-1.7-1.5-2.6-3.5-2.6-6.2c0-2.8,0.8-4.9,2.6-6.3c1.8-1.5,4.2-2.2,7.2-2.2c3.1,0,5.5,0.8,7.3,2.2c1.7,1.5,2.6,3.5,2.6,6.3
		c0,2.7-0.8,4.8-2.6,6.2c-1.8,1.5-4.2,2.2-7.3,2.2C24.3,221.9,21.9,221.1,20.1,219.6z"/>
	<path class="st0" d="M39.7,258.1H29.4v7c0,1.7,0.4,3,1.2,4c0.9,1,2.2,1.4,3.9,1.4c1.6,0,2.8-0.5,3.7-1.4c0.9-1,1.4-2.3,1.4-4
		C39.7,265.1,39.7,258.1,39.7,258.1z M34.5,268.5c-1.1,0-1.9-0.3-2.4-0.8c-0.5-0.5-0.7-1.4-0.7-2.6v-5h6.2v5c0,1.1-0.3,2-0.8,2.6
		S35.5,268.5,34.5,268.5z"/>
</g>
</svg>
