<?xml version="1.0" encoding="utf-8"?>
<!-- Generator: Adobe Illustrator 26.0.3, SVG Export Plug-In . SVG Version: 6.00 Build 0)  -->
<svg version="1.1" id="Layer_1" xmlns="http://www.w3.org/2000/svg" xmlns:xlink="http://www.w3.org/1999/xlink" x="0px" y="0px"
	 viewBox="0 0 52.9 294.3" style="enable-background:new 0 0 52.9 294.3;" xml:space="preserve">
<style type="text/css">
	.st0{fill:#422814;}
</style>
<g>
	<g>
		<path class="st0" d="M1,22V0.8h50.6V22c0,5.2-1.1,9.9-3.2,13.8l0,0c-2.1,4-5.2,7.1-9,9.2c-3.8,2.1-8.2,3.2-13,3.2
			c-4.8,0-9.1-1.1-13-3.2c-3.9-2.1-6.9-5.2-9.2-9.2C2.1,31.9,1,27.3,1,22z M3,2.8V22c0,4.9,1,9.2,3.1,12.9c2,3.6,4.8,6.5,8.4,8.4
			c3.5,2,7.6,3,12,3c4.5,0,8.5-1,12-3c3.5-2,6.2-4.8,8.2-8.4l0,0c2-3.7,3-8,3-12.9V2.8H3z M14.6,20.6V16h23.7v4.6
			c0,3.7-1,6.7-3.1,8.9c-2.1,2.2-5,3.3-8.8,3.3s-6.7-1.1-8.8-3.3C15.6,27.3,14.6,24.3,14.6,20.6z M16.6,18v2.6
			c0,3.2,0.9,5.7,2.5,7.5l0,0c1.7,1.8,4.1,2.7,7.3,2.7c3.2,0,5.6-0.9,7.3-2.7c1.7-1.8,2.5-4.3,2.5-7.5V18H16.6z"/>
	</g>
	<g>
		<path class="st0" d="M1,69V51.8h50.6V69H1z M3,53.8V67h46.6V53.8H3z"/>
	</g>
	<g>
		<path class="st0" d="M1,92.5V75.3h50.6v36.3H37.5V92.5h-4.7v13.7H19.3V92.5H1z M3,77.3v13.2h18.3v13.7h9.5V90.5h8.7v19.1h10.1
			V77.3H3z"/>
	</g>
	<g>
		<path class="st0" d="M0.5,138c0-4.3,0.9-8.1,2.6-11.4c1.7-3.3,4.3-6,7.8-7.9c3.4-1.9,7.5-2.8,12.4-2.8h28.4v17.2H23.2
			c-2,0-3.6,0.4-4.7,1.3c-1,0.8-1.6,2.1-1.6,4c0,1.9,0.5,3.2,1.6,4.1c1.1,0.9,2.7,1.4,4.7,1.4h28.4V161H23.2c-4.8,0-8.9-1-12.4-3
			c-3.4-2-6-4.8-7.8-8.3C1.4,146.1,0.5,142.2,0.5,138z M49.6,117.9H23.2c-4.5,0-8.3,0.9-11.4,2.6c-3.1,1.7-5.4,4.1-6.9,7
			c-1.6,3-2.4,6.6-2.4,10.5s0.8,7.6,2.4,10.8c1.5,3.1,3.9,5.7,7,7.5c3.1,1.8,6.9,2.8,11.3,2.8h26.4v-13.2H23.2
			c-2.5,0-4.5-0.6-5.9-1.8c-1.5-1.2-2.3-3.1-2.3-5.7c0-2.5,0.8-4.4,2.4-5.6c1.5-1.1,3.5-1.7,5.9-1.7h26.4V117.9z"/>
	</g>
	<g>
		<path class="st0" d="M0.5,186.9c0-6,1.4-11,4.3-15l0,0c2.9-4,7.2-6.2,12.7-6.6l1.1-0.1v18.2l-0.9,0.1c-2.9,0.2-3.3,1.6-3.3,2.7
			c0,0.6,0.1,1.1,0.4,1.5c0.1,0.2,0.4,0.4,1,0.4c0.5,0,1.2-0.1,1.9-1.4c0.7-1.2,1.5-3.1,2.4-5.6c1.1-3.1,2.2-5.8,3.3-7.9
			c1.1-2.2,2.8-4.1,4.9-5.6c2.2-1.6,5-2.4,8.4-2.3c3.3,0,6.3,0.9,8.6,2.6c2.4,1.7,4.2,4.1,5.4,7.1c1.2,2.9,1.8,6.2,1.8,9.9
			c0,6.2-1.5,11.1-4.3,14.8c-2.9,3.7-7.1,5.7-12.4,5.9l-1,0v-18.4l1,0c1.1,0,1.9-0.3,2.2-0.7c0.4-0.4,0.6-1,0.6-1.6
			c0-0.4-0.1-0.6-0.3-0.9c-0.2-0.2-0.6-0.3-1.1-0.3c-0.5,0-1.2,0.1-1.9,1.3c-0.7,1.2-1.5,3.1-2.5,5.6c-1.2,3.1-2.3,5.7-3.4,7.7
			c-1.1,2.1-2.7,4-4.7,5.5c-2,1.6-4.6,2.4-7.7,2.4c-3.2,0-6-0.8-8.5-2.4c-2.5-1.6-4.5-3.9-5.9-6.8C1.2,194.4,0.5,190.9,0.5,186.9z
			 M16.6,167.5c-4.5,0.5-7.8,2.4-10.2,5.6l0,0c-2.6,3.6-3.9,8.2-3.9,13.8c0,3.7,0.6,6.9,1.9,9.5c1.2,2.6,3,4.6,5.2,6
			c2.2,1.4,4.7,2.1,7.5,2.1c2.6,0,4.8-0.7,6.5-2c1.8-1.4,3.1-3,4.1-4.9c1-1.9,2.1-4.4,3.2-7.5c1-2.7,1.9-4.7,2.7-6
			c1.1-1.9,2.6-2.3,3.6-2.3c1,0,1.9,0.3,2.5,0.9c0.6,0.6,1,1.4,1,2.3c0,1.2-0.4,2.2-1.2,3c-0.6,0.7-1.5,1.1-2.7,1.3v14.4
			c4.2-0.4,7.4-2,9.8-5.1c2.6-3.3,3.9-7.9,3.9-13.6c0-3.4-0.5-6.4-1.6-9.1c-1.1-2.6-2.7-4.7-4.7-6.2c-2-1.5-4.5-2.2-7.5-2.2
			c-2.9,0-5.4,0.6-7.2,1.9c-1.9,1.4-3.3,3-4.3,4.9c-1,2-2.1,4.5-3.2,7.6c-1,2.7-1.8,4.6-2.5,5.9c-1.1,1.9-2.6,2.4-3.7,2.4
			c-1.5,0-2.2-0.7-2.7-1.3c-0.5-0.7-0.8-1.6-0.8-2.7c0-1.5,0.6-3.9,4.2-4.6C16.6,181.7,16.6,167.5,16.6,167.5z"/>
	</g>
	<g>
		<path class="st0" d="M1,245.6v-34.4h50.6v34.4H37.5v-17.2h-4v15.1H20v-15.1h-4.9v17.2H1z M3,213.2v30.4h10.2v-17.2H22v15.1h9.5
			v-15.1h8v17.2h10.1v-30.4H3z"/>
	</g>
	<g>
		<path class="st0" d="M1,293.3v-19.1l14.5-7.6H1v-17.3h50.6v23.7c0,4.1-0.7,7.6-2.2,10.5c-1.5,3-3.5,5.2-6.1,6.7
			c-2.5,1.5-5.5,2.2-8.6,2.2c-3.5,0-6.6-1-9.2-2.9c-2.4-1.7-4.2-4.1-5.4-7.1L1,293.3z M3,275.5v14.4l18.2-10.3l0.4,1.2
			c1,3.2,2.7,5.6,5.1,7.3c2.3,1.7,5.1,2.5,8.1,2.5c2.8,0,5.4-0.7,7.6-2c2.2-1.3,4-3.3,5.3-5.9c1.3-2.6,2-5.9,2-9.6v-21.7H3v13.2
			h17.4v1.6l-0.5,0.4L3,275.5z M28.6,271.7v-7h10.2v7c0,1.7-0.5,3-1.4,4c-0.9,1-2.2,1.4-3.7,1.4c-1.7,0-3-0.5-3.9-1.4
			C29,274.8,28.6,273.4,28.6,271.7z M30.6,266.7v5c0,1.2,0.2,2.1,0.7,2.6c0.5,0.5,1.3,0.8,2.4,0.8c1,0,1.8-0.3,2.3-0.8
			s0.8-1.4,0.8-2.6v-5H30.6z"/>
	</g>
</g>
</svg>
