<?xml version="1.0" encoding="utf-8"?>
<!-- Generator: Adobe Illustrator 26.0.3, SVG Export Plug-In . SVG Version: 6.00 Build 0)  -->
<svg version="1.1" id="Layer_1" xmlns="http://www.w3.org/2000/svg" xmlns:xlink="http://www.w3.org/1999/xlink" x="0px" y="0px"
	 viewBox="0 0 294.32 52.94" style="enable-background:new 0 0 294.32 52.94;" xml:space="preserve">
<style type="text/css">
	.st0{fill:#422814;}
</style>
<g>
	<g>
		<path class="st0" d="M23.13,51.85H1.87V1.22h21.26c5.23,0,9.88,1.08,13.83,3.21l0,0c3.98,2.14,7.08,5.16,9.22,8.98
			c2.14,3.8,3.22,8.17,3.22,12.99c0,4.78-1.08,9.15-3.22,12.99c-2.14,3.86-5.24,6.93-9.21,9.15C33.02,50.73,28.36,51.85,23.13,51.85
			z M3.87,49.85h19.26c4.89,0,9.22-1.03,12.87-3.07c3.64-2.03,6.48-4.84,8.44-8.37c1.97-3.54,2.96-7.58,2.96-12.02
			c0-4.47-1-8.52-2.96-12.01c-1.96-3.48-4.79-6.24-8.43-8.2l0,0c-3.66-1.97-7.99-2.97-12.89-2.97H3.87V49.85z M21.75,38.25h-4.64
			V14.54h4.64c3.68,0,6.66,1.04,8.86,3.08c2.22,2.07,3.34,5.02,3.34,8.77c0,3.75-1.12,6.7-3.34,8.77
			C28.41,37.21,25.43,38.25,21.75,38.25z M19.11,36.25h2.64c3.16,0,5.68-0.86,7.49-2.55l0,0c1.82-1.7,2.7-4.08,2.7-7.31
			c0-3.22-0.88-5.61-2.7-7.3c-1.82-1.69-4.34-2.55-7.49-2.55h-2.64V36.25z"/>
	</g>
	<g>
		<path class="st0" d="M70.15,51.85H52.9V1.22h17.25V51.85z M54.9,49.85h13.25V3.22H54.9V49.85z"/>
	</g>
	<g>
		<path class="st0" d="M93.64,51.85H76.39V1.22h36.34v14.09h-19.1v4.73h13.74v13.47H93.64V51.85z M78.39,49.85h13.25V31.51h13.74
			v-9.47H91.64v-8.73h19.1V3.22H78.39V49.85z"/>
	</g>
	<g>
		<path class="st0" d="M139.08,52.33c-4.26,0-8.11-0.87-11.42-2.58c-3.35-1.73-6-4.34-7.87-7.76c-1.86-3.38-2.8-7.54-2.8-12.37V1.22
			h17.18v28.41c0,2.01,0.43,3.6,1.28,4.72c0.79,1.05,2.09,1.56,3.98,1.56c1.9,0,3.24-0.52,4.1-1.58c0.9-1.12,1.36-2.7,1.36-4.7V1.22
			h17.18v28.41c0,4.78-1.02,8.94-3.02,12.36c-2.01,3.43-4.81,6.04-8.32,7.77C147.25,51.46,143.33,52.33,139.08,52.33z M118.99,3.22
			v26.41c0,4.48,0.86,8.32,2.55,11.4c1.68,3.06,4.05,5.4,7.04,6.94c3.02,1.57,6.55,2.36,10.5,2.36c3.95,0,7.56-0.8,10.75-2.37
			c3.15-1.55,5.67-3.91,7.48-6.99c1.82-3.1,2.75-6.92,2.75-11.34V3.22h-13.18v26.41c0,2.47-0.61,4.47-1.8,5.95
			c-1.25,1.55-3.15,2.33-5.66,2.33c-2.52,0-4.39-0.79-5.57-2.36c-1.11-1.48-1.68-3.47-1.68-5.93V3.22H118.99z"/>
	</g>
	<g>
		<path class="st0" d="M188.05,52.33c-6,0-11.04-1.44-14.98-4.28l0,0c-4.02-2.9-6.22-7.18-6.56-12.74l-0.06-1.06h18.2l0.08,0.92
			c0.24,2.9,1.57,3.27,2.71,3.27c0.62,0,1.13-0.13,1.53-0.41c0.2-0.13,0.42-0.37,0.42-0.99c0-0.49-0.14-1.22-1.35-1.92
			c-1.18-0.67-3.06-1.47-5.6-2.36c-3.15-1.11-5.79-2.21-7.86-3.28c-2.17-1.12-4.05-2.77-5.6-4.9c-1.59-2.18-2.37-5-2.32-8.37
			c0-3.35,0.89-6.26,2.63-8.65c1.73-2.36,4.12-4.17,7.09-5.38c2.93-1.19,6.25-1.79,9.89-1.79c6.16,0,11.13,1.46,14.8,4.33
			c3.73,2.92,5.72,7.08,5.91,12.36l0.04,1.04H188.6l-0.03-0.97c-0.04-1.09-0.28-1.85-0.71-2.25c-0.45-0.42-1-0.62-1.65-0.62
			c-0.37,0-0.63,0.11-0.85,0.34c-0.23,0.24-0.34,0.61-0.34,1.13c0,0.46,0.14,1.16,1.32,1.85c1.16,0.68,3.06,1.52,5.65,2.5
			c3.09,1.16,5.69,2.28,7.7,3.35c2.11,1.12,3.96,2.69,5.51,4.67c1.6,2.05,2.41,4.64,2.41,7.69c0,3.15-0.79,6.02-2.35,8.53
			c-1.56,2.51-3.85,4.5-6.81,5.91C195.53,51.63,192.03,52.33,188.05,52.33z M168.6,36.26c0.49,4.46,2.35,7.8,5.64,10.17v0
			c3.58,2.59,8.23,3.9,13.81,3.9c3.68,0,6.89-0.64,9.53-1.89c2.6-1.24,4.61-2.97,5.97-5.15c1.36-2.19,2.05-4.7,2.05-7.47
			c0-2.6-0.67-4.77-1.99-6.46c-1.37-1.76-3.01-3.14-4.87-4.13c-1.94-1.03-4.45-2.12-7.47-3.24c-2.74-1.04-4.69-1.9-5.96-2.65
			c-1.91-1.12-2.31-2.56-2.31-3.58c0-1.04,0.3-1.88,0.89-2.51c0.6-0.63,1.4-0.96,2.31-0.96c1.17,0,2.18,0.39,3.01,1.16
			c0.67,0.62,1.09,1.52,1.26,2.69h14.44c-0.37-4.21-2.04-7.43-5.08-9.82c-3.31-2.59-7.87-3.91-13.57-3.91
			c-3.38,0-6.45,0.55-9.14,1.64c-2.63,1.07-4.73,2.65-6.23,4.71c-1.49,2.04-2.25,4.55-2.25,7.48c-0.04,2.94,0.61,5.35,1.94,7.17
			c1.37,1.88,3.02,3.33,4.91,4.3c1.98,1.03,4.54,2.09,7.6,3.17c2.69,0.95,4.63,1.77,5.93,2.51c1.95,1.12,2.36,2.6,2.36,3.65
			c0,1.46-0.71,2.25-1.3,2.65c-0.74,0.5-1.63,0.76-2.66,0.76c-1.48,0-3.95-0.57-4.59-4.19H168.6z"/>
	</g>
	<g>
		<path class="st0" d="M246.75,51.85h-34.42V1.22h34.42v14.16h-17.17v3.98h15.11v13.47h-15.11v4.87h17.17V51.85z M214.33,49.85
			h30.42V39.69h-17.17v-8.87h15.11v-9.47h-15.11v-7.98h17.17V3.22h-30.42V49.85z"/>
	</g>
	<g>
		<path class="st0" d="M294.45,51.85h-19.08l-7.6-14.51v14.51h-17.25V1.22h23.67c4.08,0,7.62,0.74,10.54,2.2
			c2.96,1.48,5.21,3.53,6.7,6.09c1.48,2.55,2.23,5.46,2.23,8.64c0,3.45-0.98,6.56-2.9,9.24c-1.72,2.39-4.12,4.2-7.15,5.38
			L294.45,51.85z M276.58,49.85h14.44l-10.33-18.19l1.17-0.38c3.17-1.03,5.62-2.73,7.29-5.06c1.68-2.33,2.53-5.05,2.53-8.07
			c0-2.83-0.66-5.4-1.96-7.64c-1.29-2.22-3.27-4.01-5.87-5.31c-2.64-1.32-5.89-1.99-9.65-1.99h-21.67v46.63h13.25V32.4h1.61
			l0.35,0.54L276.58,49.85z M272.82,24.24h-7.04V13.99h7.04c1.68,0,3.01,0.46,3.96,1.38c0.95,0.92,1.44,2.18,1.44,3.74
			c0,1.71-0.48,3.01-1.43,3.87C275.86,23.82,274.53,24.24,272.82,24.24z M267.77,22.24h5.04c1.2,0,2.08-0.25,2.63-0.74
			c0.51-0.46,0.77-1.26,0.77-2.38c0-1.01-0.27-1.76-0.83-2.3c-0.56-0.54-1.42-0.82-2.57-0.82h-5.04V22.24z"/>
	</g>
</g>
</svg>
