<?xml version="1.0" encoding="utf-8"?>
<!-- Generator: Adobe Illustrator 26.0.3, SVG Export Plug-In . SVG Version: 6.00 Build 0)  -->
<svg version="1.1" id="Layer_1" xmlns="http://www.w3.org/2000/svg" xmlns:xlink="http://www.w3.org/1999/xlink" x="0px" y="0px"
	 viewBox="0 0 371.3 333.8" style="enable-background:new 0 0 371.3 333.8;" xml:space="preserve">
<style type="text/css">
	.st0{stroke:#000000;stroke-width:2;stroke-miterlimit:10;}
</style>
<g>
	<path class="st0" d="M313.2,255.5H102.7c-13.9,0-25.2-11.3-25.2-25.2s11.3-25.2,25.2-25.2l0,0c1.4,0.1,2.7,0.2,4.1,0.2h194.5
		l64-150.3H106.8c-10.6,0-20.5,3.8-28.3,10.9V41.3c0-0.8,0-1.6-0.1-2.4C77.2,20.3,62.3,5.3,43.7,4.2c-10.4-0.6-20.2,2.9-27.8,10
		c-7.4,7-11.7,16.9-11.7,27.1h14c0-6.5,2.6-12.4,7.3-16.9c4.7-4.4,10.9-6.6,17.4-6.2c11.4,0.7,20.9,10.2,21.6,21.6c0,0.5,0,1,0,1.5
		v88.9l0,0v32.2c-0.2,11.4,4.1,22.2,12.1,30.3c1.6,1.7,3.4,3.1,5.2,4.5c-11,7-18.3,19.2-18.3,33.2c0,13.7,7.1,25.8,17.8,32.8
		c-8.9,6.6-14.7,17.1-14.7,29c0,19.9,16.2,36,36,36s36-16.2,36-36c0-8.6-3-16.4-8-22.6h154c-4.7,6.1-7.5,13.7-7.5,22
		c0,19.9,16.2,36,36,36s36-16.2,36-36C349.2,271.6,333.1,255.5,313.2,255.5z M78.5,162.5V97.7c-0.1-7.7,2.8-14.9,8.1-20.3
		c5.4-5.5,12.5-8.5,20.2-8.5h237.4l-52.1,122.3H106.8c-7.7,0-14.8-3-20.2-8.5C81.2,177.4,78.3,170.1,78.5,162.5z M102.7,314.1
		c-12.2,0-22-9.9-22-22s9.9-22,22-22s22,9.9,22,22S114.8,314.1,102.7,314.1z M313.2,313.5c-12.1,0-22-9.9-22-22c0-12.2,9.9-22,22-22
		c12.2,0,22,9.9,22,22C335.2,303.6,325.3,313.5,313.2,313.5z"/>
</g>
</svg>
