<?xml version="1.0" encoding="utf-8"?>
<!-- Generator: Adobe Illustrator 26.0.3, SVG Export Plug-In . SVG Version: 6.00 Build 0)  -->
<svg version="1.1" id="Layer_1" xmlns="http://www.w3.org/2000/svg" xmlns:xlink="http://www.w3.org/1999/xlink" x="0px" y="0px"
	 viewBox="0 0 290.3 249.2" style="enable-background:new 0 0 290.3 249.2;" xml:space="preserve">
<g>
	<g>
		<path d="M80.5,50.3L80.5,50.3h-0.2C80.3,50.3,80.4,50.3,80.5,50.3z"/>
		<path d="M80.2,47.8L80.2,47.8L80.2,47.8L80.2,47.8z"/>
		<polygon points="83,47.4 83,52.8 80.3,52.8 80.3,50.3 78,50.3 80.3,50.3 80.3,47.8 80.3,47.8 80.4,47.8 		"/>
	</g>
</g>
<g>
	<g>
		<path d="M105.1,85L105.1,85L105.1,85L105.1,85z"/>
		<path d="M109.3,84.5v4c-1.9,0.2-3.3,0.3-3.8,0.3c-0.1,0-0.2,0-0.2,0h-3.6h3.6V85l0,0h0.1L109.3,84.5z"/>
		<path d="M105.3,84.9h-0.1v3.8h-3.6h3.6v3.8c0.1,0,0.3,0,0.5,0c0.6,0,1.9-0.1,3.6-0.3v-7.6C107.3,84.8,105.8,84.9,105.3,84.9z
			 M105.1,85L105.1,85L105.1,85L105.1,85z"/>
		<path d="M281.1,122.5c3.8,4.8,5.9,10.6,5.9,16.8c0.1,10.4-5.2,18.5-14.9,23.4c0.8,3.1,1.4,6.4,1.5,9.9c0.2,6.4-2,12.1-6.2,16.6
			c-2.9,3-6.6,5.4-11,7.2c1,3.3,1.5,6.9,1.5,10.8c0,6.6-2.4,12.4-7,16.8c-8.8,8.6-22.8,9.2-26.8,9.2H110.6l-0.1-3.9v-16l3.9-0.1
			h109.1c3.3,0.1,10.5-1,13.1-3.5c0.4-0.4,0.8-1,1-2.8c0.3-5.4-1.1-6-3.1-7.1c-0.6-0.3-1.3-0.5-1.7-0.7c-3.3-1.3-6.2-2.9-6.4-9.4
			c-0.1-6.4,5.6-9.5,10.9-9.9c4-0.1,12.5-1.5,15.5-4.6c1.1-1.2,1.7-1.9,1.7-2.6c0.7-5.2-0.6-6.2-2.2-6.9c-1.1-0.4-2.2-0.8-3.3-1.2
			c-3.5-1.1-8.7-2.6-8.8-8.9c-0.1-7.8,12.1-8.9,15.8-9.1c0.1,0,11-0.8,10.9-7.1c0-6.2-7.5-8.7-8.6-9c-2.4-0.5-12.4-2.9-12.9-10.2
			c-0.1-1.9,0.4-3.6,1.7-5.1c3.4-3.8,10.8-4.4,13-4.6c2.6-0.1,8.9-1.3,8.8-8.4c0-3.6-1.3-5.1-2.2-5.8c-4-3.6-13.1-3.8-16.8-3.4
			l-1.2,0.1l-56.1-0.5l-2.3-2.8l1.5-8.9c1.6-9.2,3.5-36.1-5.6-49.8c-5.8-8.7-11.3-10.1-14.1-10.2c-0.7,0-1.4,0.1-1.9,0.2
			c-0.8,6.5-3.6,16.5-13.5,38.2c-11.8,26.1-37.6,31.7-47.6,32.8v-7.8l-4,0.5H105h-0.1h-0.1c0.1,0,0.1,0,0.2,0l0,0v3.8h-3.6h3.6v3.8
			c-5.1,0.1-9.2,4.3-9.2,9.5V200c0,25.8-20.5,47.6-46,48.3c-0.4,0-1,0-1.4,0c-12.4,0-24-4.8-32.9-13.3c-9.2-9-14.3-21.1-14.3-33.9
			V78.9l3.9-0.1h42.3c2,0,5.7,0,5.7,3.9v12.6H21.2v105.3c0,14.9,11.8,27.5,26.3,28.1c7.4,0.3,14.5-2.4,19.9-7.6s8.4-12.2,8.4-19.6
			v-99.2c0-15.9,12.9-29.2,28.9-29.6h0.1h0.1c2.5-0.1,24.8-2,33.6-21.4c11.3-25,11.9-32.1,12.1-34.4C151.1,10,156.7,4.2,165,2
			c10.6-2.9,26.1,0.4,37.9,18.1c10.5,15.6,11,38.3,10.1,52.7l35.5,0.3c5-0.5,21-1.1,31.7,8.3c5.8,5.1,9,12.3,9.1,20.8
			C289.3,110.2,286.4,117.3,281.1,122.5z"/>
	</g>
</g>
</svg>
