<?xml version="1.0" encoding="utf-8"?>
<!-- Generator: Adobe Illustrator 26.0.3, SVG Export Plug-In . SVG Version: 6.00 Build 0)  -->
<svg version="1.1" id="Layer_1" xmlns="http://www.w3.org/2000/svg" xmlns:xlink="http://www.w3.org/1999/xlink" x="0px" y="0px"
	 viewBox="0 0 230.9 290.7" style="enable-background:new 0 0 230.9 290.7;" xml:space="preserve">
<style type="text/css">
	.st0{fill:#FFFFFF;}
</style>
<g>
	<path class="st0" d="M84.2,36.4l-3.3,3.3C81.8,38.5,82.9,37.3,84.2,36.4z"/>
</g>
<g>
	<path class="st0" d="M211.8,39.7l-3.3-3.3C209.7,37.3,210.8,38.5,211.8,39.7z"/>
</g>
<g>
	<g>
		<path d="M115.4,1.8C73.3,1.8,39.1,36,39.1,78.1s34.2,76.3,76.3,76.3s76.3-34.2,76.3-76.3S157.5,1.8,115.4,1.8z M115.4,133.3
			c-30.4,0-55.1-24.7-55.1-55.1S85,23,115.4,23s55.1,24.7,55.1,55.2C170.6,108.6,145.8,133.3,115.4,133.3z"/>
	</g>
	<g>
		<path d="M229.6,209.6v74.5c0,3.2-2.6,5.8-5.8,5.8h-9.4c-3.2,0-5.8-2.6-5.8-5.8v-74.3c0-5-1.6-9.8-4.7-13.9
			c-1.5-1.9-2.8-3.2-4.3-4.3c-4.1-3.1-9-4.8-13.9-4.8H45c-5.1,0-10,1.7-13.8,4.7c-1.9,1.5-3.3,2.9-4.3,4.3c-3.1,4.1-4.8,9-4.8,13.9
			V284c0,3.2-2.6,5.8-5.8,5.8H6.9c-3.2,0-5.8-2.6-5.8-5.8v-74.3c0-24.2,19.7-43.9,43.9-43.9h140.8c11.6,0,22.6,4.5,30.9,12.8
			C225.1,186.9,229.6,197.9,229.6,209.6z"/>
	</g>
</g>
</svg>
