<?xml version="1.0" encoding="utf-8"?>
<!-- Generator: Adobe Illustrator 26.0.3, SVG Export Plug-In . SVG Version: 6.00 Build 0)  -->
<svg version="1.1" id="Layer_1" xmlns="http://www.w3.org/2000/svg" xmlns:xlink="http://www.w3.org/1999/xlink" x="0px" y="0px"
	 viewBox="0 0 172.9 172.1" style="enable-background:new 0 0 172.9 172.1;" xml:space="preserve">
<g>
	<path d="M168.3,159.8l-37.7-37.7c7.3-8.6,12.6-19,15.3-30.7c4.2-18.8,0.9-38.1-9.5-54.4C126.1,20.7,110.1,9.4,91.3,5.2
		C52.5-3.5,13.8,21,5.1,59.8s15.8,77.5,54.6,86.2c5.3,1.2,10.6,1.8,15.8,1.8c16.5,0,32.2-5.7,44.8-15.6c0.1-0.1,0.2-0.2,0.3-0.3
		l37.8,37.8c1.2,1.2,3.3,1.2,4.5,0l5.4-5.4C169.5,163.1,169.5,161,168.3,159.8z M106.6,124.7c-13.1,8.3-28.7,11-43.8,7.6
		c-31.3-7-51-38.2-44-69.5c6.1-27,30.1-45.4,56.7-45.4c4.2,0,8.5,0.5,12.7,1.4c15.2,3.4,28.1,12.5,36.4,25.6s11,28.7,7.6,43.8
		C128.8,103.5,119.7,116.4,106.6,124.7z"/>
</g>
</svg>
