<?xml version="1.0" encoding="utf-8"?>
<!-- Generator: Adobe Illustrator 26.0.3, SVG Export Plug-In . SVG Version: 6.00 Build 0)  -->
<svg version="1.1" id="Layer_1" xmlns="http://www.w3.org/2000/svg" xmlns:xlink="http://www.w3.org/1999/xlink" x="0px" y="0px"
	 viewBox="0 0 612 792" style="enable-background:new 0 0 612 792;" xml:space="preserve">
<g>
	<g>
		<g>
			<path d="M413.9,227.9H156.1c-8.3,0-15.1,6.8-15.1,15.1v165.5c0,8.3,6.8,15.1,15.1,15.1h257.7c8.4,0,15.2-6.8,15.2-15.1V243
				C429,234.7,422.2,227.9,413.9,227.9z M409,398.7c0,2.8-2.2,5-5,5H166c-2.8,0-5-2.3-5-5V253c0-2.8,2.2-5,5-5h238c2.8,0,5,2.2,5,5
				V398.7z"/>
		</g>
	</g>
	<g>
		<g>
			<path d="M380.1,264.1c0,1.7-0.7,3.4-2,4.7c-1.3,1.3-3,2-4.7,2h-198c-3.8,0-6.7-2.9-6.7-6.7c0-1.7,0.7-3.4,2-4.7
				c1.3-1.3,3-2,4.7-2h198C377.1,257.3,380.1,260.3,380.1,264.1z"/>
		</g>
	</g>
	<g>
		<g>
			<path d="M320.9,287.1c0,1.7-0.7,3.4-2,4.7c-1.3,1.3-3,2-4.7,2H175.4c-3.8,0-6.7-3-6.7-6.7c0-1.7,0.7-3.4,2-4.7c1.3-1.3,3-2,4.7-2
				h138.8C317.9,280.3,320.9,283.4,320.9,287.1z"/>
		</g>
	</g>
	<g>
		<g>
			<path d="M392.3,317.2h-65.9c-2.8,0-5.2,2.3-5.2,5.2v65.9c0,2.8,2.3,5.2,5.2,5.2h65.9c2.8,0,5.2-2.3,5.2-5.2v-65.9
				C397.5,319.5,395.1,317.2,392.3,317.2z M384,332.8v44.9c0,1.2-1,2.2-2.2,2.2h-44.9c-1.2,0-2.2-1-2.2-2.2v-44.9
				c0-1.2,1-2.2,2.2-2.2h44.9C383,330.6,384,331.6,384,332.8z"/>
		</g>
	</g>
</g>
</svg>
