<?xml version="1.0" encoding="utf-8"?>
<!-- Generator: Adobe Illustrator 26.0.3, SVG Export Plug-In . SVG Version: 6.00 Build 0)  -->
<svg version="1.1" id="Layer_1" xmlns="http://www.w3.org/2000/svg" xmlns:xlink="http://www.w3.org/1999/xlink" x="0px" y="0px"
	 viewBox="0 0 291.9 199.7" style="enable-background:new 0 0 291.9 199.7;" xml:space="preserve">
<g>
	<g>
		<g>
			<path d="M274.3,2.1H16.5C8.2,2.1,1.4,8.9,1.4,17.2v165.5c0,8.3,6.8,15.1,15.1,15.1h257.7c8.4,0,15.2-6.8,15.2-15.1V17.2
				C289.4,8.9,282.6,2.1,274.3,2.1z M269.4,172.9c0,2.8-2.2,5-5,5h-238c-2.8,0-5-2.3-5-5V27.2c0-2.8,2.2-5,5-5h238c2.8,0,5,2.2,5,5
				V172.9z"/>
		</g>
	</g>
	<g>
		<g>
			<path d="M240.5,38.3c0,1.7-0.7,3.4-2,4.7c-1.3,1.3-3,2-4.7,2h-198c-3.8,0-6.7-2.9-6.7-6.7c0-1.7,0.7-3.4,2-4.7c1.3-1.3,3-2,4.7-2
				h198C237.5,31.5,240.5,34.5,240.5,38.3z"/>
		</g>
	</g>
	<g>
		<g>
			<path d="M181.3,61.3c0,1.7-0.7,3.4-2,4.7c-1.3,1.3-3,2-4.7,2H35.8c-3.8,0-6.7-3-6.7-6.7c0-1.7,0.7-3.4,2-4.7c1.3-1.3,3-2,4.7-2
				h138.8C178.3,54.5,181.3,57.6,181.3,61.3z"/>
		</g>
	</g>
	<g>
		<g>
			<path d="M252.7,91.4h-65.9c-2.8,0-5.2,2.3-5.2,5.2v65.9c0,2.8,2.3,5.2,5.2,5.2h65.9c2.8,0,5.2-2.3,5.2-5.2V96.6
				C257.9,93.7,255.5,91.4,252.7,91.4z M244.4,107v44.9c0,1.2-1,2.2-2.2,2.2h-44.9c-1.2,0-2.2-1-2.2-2.2V107c0-1.2,1-2.2,2.2-2.2
				h44.9C243.4,104.8,244.4,105.8,244.4,107z"/>
		</g>
	</g>
</g>
</svg>
