<svg width="326" height="547" viewBox="0 0 326 547" fill="none" xmlns="http://www.w3.org/2000/svg">
<path opacity="0.5" d="M150.655 385.947C151.668 388.582 150.577 392.295 150.577 392.295C150.577 392.295 131.676 452.419 130.787 454.262C130.031 455.6 129.039 456.789 127.86 457.774C127.814 458.099 126.925 463.33 120.765 470.924C107.504 487.262 81.6841 492.87 60.0178 479.473C38.3515 466.076 41.876 439.126 41.876 439.126C41.043 437.783 40.6969 436.195 40.8959 434.628C40.8959 434.628 50.6321 378.749 51.6576 371.524C52.4755 365.786 54.254 364.514 54.903 364.235C54.9848 364.195 55.0725 364.169 55.1627 364.157C54.8447 365.976 54.9151 367.842 55.3692 369.632C55.8234 371.422 56.6511 373.095 57.7979 374.543C64.0745 382.331 78.1012 390.062 90.7258 393.32C91.284 393.463 91.8357 393.606 92.3809 393.736C96.2754 394.703 99.9881 395.462 103.506 396.046C108.379 396.877 113.301 397.395 118.24 397.598C122.702 397.792 127.173 397.609 131.605 397.053C135.905 396.577 140.103 395.429 144.048 393.651C150.272 390.653 150.655 385.947 150.655 385.947Z" fill="#F2EACD" stroke="#442508" stroke-width="1.94724" stroke-miterlimit="10"/>
<path d="M276.719 152.2C276.719 152.2 270.573 159.723 256.501 172.166C255.492 173.053 254.501 173.875 253.528 174.632C244.583 181.61 237.255 183.285 235.211 183.635C234.841 183.7 234.646 183.72 234.646 183.72L199.485 209.339C199.44 209.508 199.401 209.67 199.362 209.839L196.363 221.749C199.68 223.735 198.96 225.644 198.96 225.644C198.96 225.644 194.546 241.299 193.936 243.513C193.736 244.177 193.393 244.789 192.931 245.306C192.469 245.823 191.899 246.232 191.262 246.505L190.132 250.75L174.132 308.486C171.158 310.013 167.901 310.912 164.565 311.127C164.05 311.162 163.537 311.188 163.027 311.205C161.177 311.296 159.32 311.348 157.47 311.361C151.244 311.399 145.022 311.065 138.835 310.362C134.714 309.901 130.67 309.297 126.737 308.583C121.057 307.551 115.605 306.285 110.51 304.89C94.8018 300.599 82.346 295.043 76.4263 291.077C75.6212 290.549 74.8534 289.966 74.1286 289.331C72.0852 287.605 70.4267 285.469 69.2605 283.061C69.8187 280.413 81.6514 223.878 81.9305 222.366C82.0095 221.647 82.2443 220.953 82.6186 220.334C82.0866 219.946 81.6732 219.417 81.4244 218.807C81.1757 218.198 81.1015 217.531 81.2101 216.881C81.2101 216.881 84.7281 199.804 85.481 197.545C86.2339 195.286 89.4988 195.033 89.4988 195.033C89.4988 195.033 96.6387 167.772 99.6699 147.183C100.81 139.854 100.401 132.367 98.4706 125.205C96.5398 118.044 93.1298 111.366 88.4603 105.603C88.311 105.415 88.1617 105.22 88.0254 105.012C87.8891 104.804 87.7722 104.655 87.6554 104.467C87.5386 104.279 87.3958 104.058 87.2789 103.818C87.1621 103.578 87.0712 103.448 86.9804 103.253C86.9479 103.195 86.9155 103.13 86.8895 103.071C86.7921 102.87 86.6948 102.663 86.6039 102.422C86.513 102.208 86.4287 101.981 86.3443 101.773C86.2599 101.566 86.1431 101.196 86.0587 100.897C85.9743 100.598 85.9159 100.365 85.851 100.092C85.8055 99.8715 85.7601 99.6443 85.7212 99.4431C85.7181 99.4303 85.7181 99.4169 85.7212 99.4041C85.6822 99.1835 85.6498 98.9628 85.6238 98.7551C85.6238 98.7551 85.6238 98.6966 85.6238 98.6642C85.6238 98.4305 85.5784 98.1904 85.5654 97.9502C85.3382 94.0103 86.7727 89.272 91.5759 84.3585C97.3397 78.4518 107.972 72.2726 126.425 66.8723C158.269 57.5515 187.153 59.7324 202.108 62.0171C205.703 62.5189 209.271 63.2013 212.798 64.0618C212.798 64.0618 222.339 58.6614 235.782 61.5498C240.533 62.6235 245.106 64.3721 249.361 66.7424C264.608 75.0766 279.218 91.5697 283.502 113.035C289.032 140.893 276.719 152.2 276.719 152.2Z" fill="#F2EACD" stroke="#442508" stroke-width="3.89448" stroke-miterlimit="10"/>
<path d="M276.948 152.382C276.948 152.382 270.801 159.905 256.729 172.348C250.075 178.202 241.907 182.064 233.161 183.492C240.593 176.956 259.41 167.317 259.689 143.899C260.091 109.744 235.965 94.0493 235.965 94.0493L220.763 75.2649L249.589 66.9048C264.836 75.239 279.447 91.7321 283.731 113.197C289.261 141.075 276.948 152.382 276.948 152.382Z" fill="#F2EACD" stroke="#442508" stroke-width="1.29816" stroke-miterlimit="10"/>
<path d="M276.946 152.382C276.946 152.382 252.93 175.684 247.225 179.111C241.52 182.538 267.431 167.707 265.211 136.116C262.991 104.525 235.25 84.0598 235.25 84.0598L190.69 64.8535L202.302 62.1144C205.91 62.6322 209.488 63.332 213.025 64.2109C213.025 64.2109 222.566 58.8106 236.009 61.699C240.76 62.7726 245.333 64.5213 249.588 66.8916C264.835 75.2258 279.445 91.7189 283.729 113.184C289.259 141.075 276.946 152.382 276.946 152.382Z" fill="#F2EACD" stroke="#442508" stroke-width="3.89448" stroke-miterlimit="10"/>
<path d="M236.45 100.78L235.912 101.345C226.825 111.179 216.874 134.896 202.361 186.245C200.264 193.664 203.471 194.553 199.583 209.404C199.537 209.573 199.498 209.735 199.459 209.904L196.461 221.788C199.777 223.775 199.057 225.683 199.057 225.683C199.057 225.683 194.643 241.339 194.033 243.552C193.833 244.216 193.491 244.828 193.028 245.345C192.566 245.862 191.996 246.272 191.359 246.544L190.178 250.815L92.9195 220.685L89.5637 195.092C89.5637 195.092 96.7036 167.83 99.7348 147.242C100.878 139.916 100.474 132.431 98.5494 125.271C96.6243 118.111 93.2206 111.433 88.5577 105.668C88.4084 105.48 88.2591 105.285 88.1228 105.077C87.9865 104.87 87.8696 104.72 87.7528 104.532C87.636 104.344 87.4932 104.123 87.3763 103.883C87.2595 103.643 87.1686 103.513 87.0778 103.318L86.9869 103.137C86.8895 102.935 86.7922 102.728 86.7013 102.488C86.6104 102.273 86.5261 102.046 86.4417 101.838C86.3573 101.631 86.2405 101.261 86.1561 100.962C86.0717 100.664 86.0133 100.43 85.9484 100.157C85.9029 99.9367 85.8575 99.7095 85.8185 99.5083C85.8155 99.4955 85.8155 99.4821 85.8185 99.4693C85.7796 99.2486 85.7472 99.028 85.7212 98.8202C85.7212 98.7878 85.7212 98.7618 85.7212 98.7294C85.7212 98.4957 85.6758 98.2555 85.6628 98.0154C85.4421 94.069 86.8701 89.3437 91.6733 84.4237C97.4371 78.517 108.069 72.3378 126.522 66.9375C158.366 57.6167 187.25 59.7976 202.205 62.0823C205.812 62.6002 209.391 63.2999 212.928 64.1789C212.928 64.1789 262.18 74.4019 236.45 100.78Z" fill="#F2EACD" stroke="#442508" stroke-width="3.89448" stroke-miterlimit="10"/>
<path d="M236.579 100.897L236.041 101.462C228.615 107.855 221.365 111.38 207.877 115.689C199.394 118.403 185.711 121.207 170.289 122.596C163.681 123.186 156.756 123.524 149.778 123.485C140.319 123.498 130.88 122.629 121.582 120.889C111.677 118.941 102.506 115.813 94.9697 111.049C90.6923 108.342 87.5637 105.512 86.0449 100.254C84.0976 91.6151 89.7576 77.7508 126.547 66.9696C104.537 74.9467 91.9904 85.4878 90.5235 93.5818C89.5694 98.8718 93.3211 106.161 104.394 111.444C110.236 114.101 116.359 116.091 122.646 117.377C131.944 119.345 141.411 120.399 150.914 120.525C156.354 120.624 161.795 120.422 167.212 119.921L168.77 119.772C215.03 115.183 233.983 100.241 238.092 91.7904C242.246 83.2355 234.996 79.2307 224.286 75.7646C216.627 73.2851 203.379 74.4664 203.379 74.4664C203.379 74.4664 187.6 83.6639 182.576 86.4484C177.552 89.233 164.343 90.1352 161.007 87.3507C160.683 87.1288 160.428 86.8197 160.271 86.459C160.115 86.0984 160.064 85.7009 160.124 85.3125C160.215 85.0529 160.3 84.8128 160.377 84.5791C161.358 82.6318 164.486 81.0156 164.486 81.0156C164.486 81.0156 175.202 75.2583 187.717 67.9562C193.059 64.8341 192.059 63.2698 188.255 62.3611C193.822 62.5159 199.371 63.0494 204.865 63.9578C215.978 65.6779 262.322 74.5183 236.579 100.897Z" fill="#F2EACD" stroke="#442508" stroke-width="1.29816" stroke-miterlimit="10"/>
<path d="M150.577 392.295C150.577 392.295 131.676 452.419 130.786 454.263C130.03 455.6 129.038 456.79 127.859 457.774C127.58 458.04 114.916 470.282 74.9915 460.494C49.9176 454.347 41.8885 439.113 41.8885 439.113C41.0554 437.77 40.7094 436.182 40.9083 434.615C40.9083 434.615 50.6445 378.736 51.6701 371.511C52.4879 365.773 54.2664 364.501 54.9155 364.222L55.1751 364.144C55.1751 364.144 64.2622 352.811 101.85 360.25C139.439 367.688 150.233 382.117 150.635 385.927C151.667 388.602 150.577 392.295 150.577 392.295Z" fill="#F2EACD" stroke="#442508" stroke-width="3.89448" stroke-miterlimit="10"/>
<path opacity="0.5" d="M174.334 308.667V308.719L150.668 385.96C150.668 385.96 150.286 390.665 144.08 393.664C140.135 395.433 135.936 396.572 131.637 397.039C127.206 397.596 122.735 397.778 118.273 397.585C113.334 397.382 108.412 396.864 103.539 396.033C100.021 395.449 96.3145 394.69 92.4136 393.723C91.8683 393.593 91.3166 393.45 90.7584 393.307C78.1338 390.062 64.1072 382.344 57.8306 374.529C56.6838 373.082 55.8561 371.408 55.4019 369.619C54.9477 367.829 54.8773 365.963 55.1953 364.144L69.4037 283.34V283.243C70.5699 285.65 72.2284 287.786 74.2718 289.513C74.9966 290.147 75.7644 290.73 76.5695 291.259C82.4891 295.225 94.945 300.781 110.653 305.071C115.761 306.467 121.213 307.732 126.88 308.764C130.813 309.478 134.857 310.063 138.979 310.543C145.186 311.249 151.431 311.583 157.679 311.543C159.528 311.543 161.385 311.478 163.235 311.387L164.773 311.309C168.107 311.093 171.362 310.194 174.334 308.667Z" fill="#F2EACD" stroke="#442508" stroke-width="1.94724" stroke-miterlimit="10"/>
<path opacity="0.3" d="M163.228 311.361L147.416 363.463C117.766 332.872 77.6338 342.627 65.7231 346.431L76.6147 291.259C85.7927 297.412 110.691 307.369 139.037 310.543C145.225 311.247 151.45 311.581 157.678 311.543C159.522 311.53 161.378 311.478 163.228 311.361Z" fill="#FDFCF9"/>
<path opacity="0.5" d="M126.938 308.563L114.982 359.548C115.566 365.494 110.705 366.266 110.705 366.266L103.565 394.722C100.047 394.144 96.3404 393.424 92.4395 392.444L99.0406 362.638C95.3408 359.756 99.7351 354.849 99.7351 354.849L110.698 304.922L113.294 292.998L127.821 304.831L126.938 308.563Z" fill="#EBD7B9" stroke="#75400E" stroke-width="0.642589" stroke-miterlimit="10"/>
<path opacity="0.75" d="M157.677 311.536L131.636 396.196C127.204 396.747 122.734 396.927 118.272 396.735L139.042 310.543C145.229 311.242 151.452 311.573 157.677 311.536Z" fill="#FDFCF9"/>
<path d="M191.515 246.661L190.333 250.932L174.334 308.7C171.359 310.227 168.103 311.127 164.766 311.342C123.829 313.802 82.5212 296.919 74.3168 289.546C72.2734 287.819 70.615 285.683 69.4487 283.275C70.0069 280.627 81.8397 224.092 82.1188 222.58C82.1978 221.861 82.4325 221.168 82.8068 220.548L87.4672 220.062L183.843 235.549L191.515 246.661Z" fill="#F2EACD" stroke="#442508" stroke-width="3.89448" stroke-miterlimit="10"/>
<path d="M237.839 92.621C233.73 101.059 215.056 115.235 168.796 119.824L167.239 119.973C161.821 120.474 156.38 120.675 150.94 120.577C152.455 116.527 153.64 112.362 154.484 108.121C154.984 105.655 155.458 103.402 155.912 101.338C157.031 95.9273 158.437 90.58 160.125 85.3189C160.065 85.7073 160.116 86.1047 160.272 86.4654C160.428 86.826 160.683 87.1351 161.007 87.357C164.344 90.1415 177.559 89.2393 182.576 86.4548C187.594 83.6702 203.405 74.5312 203.405 74.5312C203.405 74.5312 215.316 68.2675 227.707 73.1486C238.164 77.2443 241.993 84.0597 237.839 92.621Z" fill="#F2EACD" stroke="#442508" stroke-width="1.29816" stroke-miterlimit="10"/>
<path d="M155.913 101.332C155.459 103.396 154.985 105.648 154.485 108.115C153.641 112.355 152.456 116.521 150.941 120.571C141.438 120.445 131.971 119.39 122.674 117.422C128.47 104.025 148.397 101.708 155.913 101.332Z" fill="#442508" stroke="#442508" stroke-width="1.29816" stroke-miterlimit="10"/>
<path d="M199.122 225.741C199.122 225.741 194.708 241.397 194.098 243.61C193.83 244.554 193.26 245.384 192.475 245.973C192.422 246.02 192.366 246.063 192.307 246.102C192.032 246.302 191.736 246.47 191.424 246.602C191.101 246.726 190.769 246.823 190.431 246.894C190.262 246.933 190.074 246.979 189.859 247.018C189.373 247.115 188.75 247.219 187.99 247.303L187.341 247.375C186.601 247.446 185.744 247.511 184.745 247.543H184.524C183.524 247.582 182.402 247.589 181.142 247.543H180.208C179.189 247.511 178.079 247.452 176.884 247.375L175.586 247.284C174.554 247.199 173.457 247.095 172.302 246.972C171.653 246.907 170.958 246.829 170.257 246.745C169.271 246.628 168.239 246.492 167.168 246.343L166.83 246.297L164.695 245.992C163.552 245.83 162.423 245.667 161.274 245.492L158.522 245.083L155.556 244.616C154.498 244.447 153.433 244.265 152.362 244.084C151.291 243.902 150.116 243.694 148.974 243.48C148.033 243.311 147.085 243.13 146.131 242.941C145.002 242.727 143.866 242.493 142.71 242.253C141.717 242.052 140.718 241.831 139.705 241.604C138.693 241.377 137.485 241.104 136.349 240.838C135.213 240.572 133.98 240.267 132.766 239.956C131.806 239.715 130.819 239.469 129.846 239.209C128.612 238.878 127.366 238.56 126.094 238.184C125.172 237.924 124.244 237.651 123.296 237.372L120.233 236.464L117.448 235.594C116.39 235.256 115.326 234.912 114.235 234.549L111.47 233.627L108.348 232.55L105.589 231.563L103.136 230.654C102.234 230.323 101.319 230.005 100.397 229.629L100.105 229.518L99.605 229.324C96.9113 228.285 94.5486 227.24 92.5105 226.241C91.5239 225.76 90.6109 225.295 89.7714 224.845C88.7718 224.313 87.8826 223.806 87.0972 223.339C86.1171 222.761 85.3057 222.242 84.6567 221.807C83.3585 220.964 82.7549 220.451 82.7549 220.451C82.5144 220.26 82.2966 220.042 82.1058 219.802C81.7819 219.414 81.5462 218.961 81.4151 218.474C81.2839 217.986 81.2605 217.476 81.3464 216.978C81.3464 216.978 84.8644 199.901 85.6173 197.642C86.3702 195.383 89.6351 195.13 89.6351 195.13C89.5882 196.436 89.9199 197.727 90.5901 198.849C91.2603 199.971 92.2406 200.875 93.4128 201.452C94.5162 202.023 98.9559 203.737 105.447 205.944C106.433 206.281 107.47 206.63 108.556 206.989C111.048 207.82 113.748 208.696 116.663 209.585L118.519 210.163C123.095 211.565 128.061 213.012 133.208 214.395C148.191 218.34 163.372 221.489 178.689 223.826L179.338 223.923L180.266 224.053C180.759 224.125 181.233 224.189 181.694 224.241C195.552 225.767 196.526 221.794 196.526 221.794C197.338 222.258 198.049 222.881 198.616 223.625L198.726 223.781C198.879 224.013 199.003 224.264 199.096 224.527C199.096 224.585 199.128 224.637 199.141 224.689C199.144 224.722 199.144 224.754 199.141 224.787C199.141 224.851 199.141 224.916 199.174 224.981C199.217 225.235 199.199 225.495 199.122 225.741Z" fill="#F2EACD" stroke="#442508" stroke-width="3.89448" stroke-miterlimit="10"/>
<mask id="mask0_1044_3673" style="mask-type:luminance" maskUnits="userSpaceOnUse" x="83" y="197" width="115" height="49">
<path d="M197.235 225.266C196.93 226.337 192.808 240.968 192.224 243.084C192.072 243.62 191.745 244.09 191.296 244.421L191.179 244.512C191.025 244.624 190.86 244.72 190.686 244.797C190.46 244.874 190.231 244.939 189.998 244.992H189.926L189.479 245.083C188.953 245.193 188.382 245.277 187.746 245.349L187.174 245.414C186.331 245.498 185.526 245.55 184.721 245.576H184.494C183.553 245.608 182.482 245.621 181.248 245.576H180.34C179.398 245.544 178.334 245.492 177.094 245.407L176.056 245.336H175.828C174.809 245.251 173.725 245.148 172.583 245.024L170.577 244.804C169.604 244.687 168.585 244.55 167.488 244.401L167.144 244.349L165.054 244.057C163.918 243.895 162.795 243.733 161.653 243.557H161.49L158.894 243.168L155.941 242.701C154.948 242.545 153.948 242.376 152.942 242.201L152.423 242.11C151.43 241.941 150.423 241.766 149.398 241.571C148.47 241.409 147.529 241.227 146.574 241.039C145.458 240.825 144.335 240.598 143.18 240.357C142.317 240.182 141.447 239.987 140.583 239.799L140.233 239.721L136.897 238.962C135.735 238.683 134.554 238.397 133.34 238.079C132.386 237.845 131.392 237.599 130.451 237.346L126.719 236.327C125.804 236.067 124.889 235.794 123.941 235.515C122.993 235.236 121.922 234.925 120.91 234.62L118.086 233.756C117.041 233.419 115.983 233.107 114.893 232.718L113.069 232.108L112.154 231.803L108.999 230.712L108.272 230.452L106.247 229.725L106.072 229.667L103.794 228.823L101.113 227.817L100.912 227.739L100.295 227.506C97.8416 226.558 95.5049 225.558 93.3499 224.487C92.4153 224.027 91.513 223.572 90.6757 223.124C89.8384 222.676 88.9232 222.164 88.0794 221.657C87.2356 221.151 86.4762 220.677 85.7297 220.184C84.5679 219.412 83.9837 218.938 83.9448 218.886C83.8208 218.786 83.7057 218.675 83.6007 218.555C83.4623 218.391 83.3597 218.2 83.2993 217.995C83.239 217.789 83.2222 217.573 83.2502 217.36C84.6523 210.545 86.937 199.835 87.4628 198.245C87.5655 197.992 87.7508 197.782 87.9885 197.648C88.3056 198.841 88.8754 199.951 89.6594 200.904C90.4433 201.857 91.423 202.63 92.5321 203.172C93.9341 203.899 99.0229 205.768 104.832 207.774C105.825 208.118 106.87 208.468 107.954 208.825C110.583 209.701 113.322 210.584 116.087 211.421L117.528 211.876L117.963 212.006C123.026 213.557 127.985 214.985 132.717 216.257C147.774 220.223 163.032 223.386 178.425 225.734L179.262 225.863L179.996 225.967C180.515 226.039 181.008 226.11 181.488 226.162C190.576 227.168 194.827 225.87 196.787 224.442C196.893 224.552 196.99 224.669 197.079 224.792L197.112 224.844C197.174 224.935 197.224 225.033 197.261 225.136L197.235 225.266Z" fill="white"/>
</mask>
<g mask="url(#mask0_1044_3673)">
<path d="M132.858 212.875L127.243 238.988C126.347 238.683 125.439 238.339 124.517 238.034L129.82 211.843L132.858 212.875Z" fill="#75400E"/>
<path d="M126.725 210.752L121.532 236.955L118.819 235.93L123.68 209.649L126.725 210.752Z" fill="#75400E"/>
<path d="M120.641 208.519L115.695 234.697L113.008 233.606L117.623 207.384L120.641 208.519Z" fill="#75400E"/>
<path d="M114.839 206.293L109.932 232.308C109.042 231.925 108.153 231.542 107.244 231.14L111.827 205.086C112.794 205.488 113.8 205.884 114.839 206.293Z" fill="#75400E"/>
<path d="M109.718 204.261L104.843 230.095C103.967 229.705 103.071 229.296 102.176 228.881L106.719 203.002C107.693 203.409 108.692 203.829 109.718 204.261Z" fill="#75400E"/>
<path d="M89.0399 197.533L84.1639 224.026C82.2703 223.06 81.3189 222.462 81.3189 222.462C80.9504 222.241 80.6194 221.989 80.3327 221.711L84.8159 194.962C84.9644 195.089 85.1323 195.222 85.3097 195.354C86.4262 196.189 87.6785 196.921 89.0399 197.533Z" fill="#75400E"/>
<path d="M139.173 214.952L133.741 241.084C132.806 240.798 131.852 240.506 130.898 240.201L135.993 213.927C137.051 214.271 138.102 214.647 139.173 214.952Z" fill="#75400E"/>
<path d="M145.995 217.074L140.478 243.038C139.409 242.743 138.327 242.443 137.233 242.135L142.231 215.926C143.485 216.319 144.74 216.702 145.995 217.074Z" fill="#75400E"/>
<path d="M152.089 218.82L146.748 244.608C145.651 244.355 144.541 244.076 143.418 243.79L148.481 217.827C149.681 218.145 150.889 218.489 152.089 218.82Z" fill="#75400E"/>
<path d="M158.223 220.45L152.817 245.959C151.726 245.725 150.629 245.498 149.513 245.245L154.816 219.561C155.952 219.84 157.094 220.158 158.223 220.45Z" fill="#75400E"/>
<path d="M170.14 223.085L164.818 248.211C163.708 248.022 162.604 247.828 161.488 247.62L166.681 222.41C167.856 222.656 169.011 222.89 170.14 223.085Z" fill="#75400E"/>
<path d="M175.548 224.045L170.245 249.1C169.284 248.963 168.298 248.801 167.24 248.626L166.909 248.574L172.101 223.468C173.257 223.675 174.419 223.87 175.548 224.045Z" fill="#75400E"/>
<path d="M180.831 224.747L175.437 249.737C174.431 249.639 173.36 249.516 172.237 249.373L177.508 224.332C178.637 224.494 179.747 224.63 180.831 224.747Z" fill="#75400E"/>
<path d="M185.316 225.13L179.941 250.048C178.948 250.009 177.864 249.938 176.696 249.847L181.954 224.857C183.102 224.974 184.225 225.032 185.316 225.13Z" fill="#75400E"/>
<path d="M189.483 225.253L184.134 250.035C183.16 250.08 182.07 250.093 180.843 250.067L186.088 225.169C186.737 225.169 187.386 225.221 188.035 225.234L189.483 225.253Z" fill="#75400E"/>
<path d="M197.987 224.383C197.987 224.383 194.021 242.752 193.443 245.368C193.21 246.436 192.66 247.408 191.866 248.159C191.815 248.216 191.758 248.268 191.697 248.315L196.961 224.175C197.019 224.175 197.331 223.877 197.383 223.851C197.481 223.77 197.574 223.683 197.662 223.591C198.039 224.162 197.987 224.383 197.987 224.383Z" fill="#75400E"/>
<path d="M197.428 223.961L191.846 248.172C191.794 248.229 191.738 248.281 191.677 248.328C191.417 248.56 191.129 248.758 190.82 248.919C190.508 249.06 190.184 249.175 189.853 249.263C189.691 249.308 189.509 249.36 189.295 249.405L194.89 224.779C195.117 224.734 195.331 224.688 195.539 224.636C196.134 224.494 196.714 224.296 197.272 224.046C197.326 224.023 197.378 223.994 197.428 223.961Z" fill="#75400E"/>
<path d="M195.533 224.636L189.854 249.263C189.692 249.308 189.51 249.36 189.296 249.405C188.697 249.551 188.09 249.664 187.478 249.743L193.093 225.078C193.696 225.015 194.297 224.922 194.891 224.799C195.118 224.734 195.326 224.688 195.533 224.636Z" fill="#75400E"/>
<path d="M192.535 225.11L186.888 249.827C186.167 249.912 185.33 249.99 184.376 250.029L189.965 225.24C190.886 225.227 191.75 225.182 192.535 225.11Z" fill="#75400E"/>
<path d="M164.487 221.936L158.808 247.139L155.919 246.588L161.047 221.137C162.222 221.416 163.345 221.682 164.487 221.936Z" fill="#75400E"/>
<path d="M104.824 200.86C104.825 201.411 104.775 201.961 104.675 202.502C104.253 205.099 100.968 223.558 100.086 228.517C99.4366 228.206 98.7875 227.868 98.2034 227.583C96.2345 226.579 94.4625 225.59 92.8874 224.616C91.8813 224.013 90.9402 223.416 90.1028 222.851C89.0903 222.202 88.1881 221.553 87.3897 220.949C87.2728 218.97 87.4014 216.984 87.7727 215.036C88.941 208.188 90.2521 201.048 90.2521 201.048C90.2521 201.048 90.7389 196.901 93.2314 195.278C94.4387 195.927 95.9705 196.758 97.775 197.634L98.0021 197.738C99.5794 198.498 101.351 199.315 103.292 200.185C103.805 200.412 104.305 200.633 104.824 200.86Z" fill="#75400E" stroke="#442508" stroke-width="0.73346" stroke-miterlimit="10"/>
<path d="M104.824 200.861C104.825 201.412 104.775 201.961 104.675 202.503C104.253 205.099 100.969 223.559 100.086 228.518C99.4369 228.207 98.7878 227.869 98.2036 227.583L103.299 200.186C103.805 200.413 104.305 200.634 104.824 200.861Z" fill="#F2EACD" stroke="#442508" stroke-width="0.73346" stroke-miterlimit="10"/>
</g>
</svg>
