<svg width="327" height="327" viewBox="0 0 327 327" fill="none" xmlns="http://www.w3.org/2000/svg">
<path d="M266.858 184.063C265.618 194.208 263.58 199.599 257.54 209.175C255.869 211.749 253.869 214.094 251.592 216.151C245.242 222.058 236.975 226.588 231.326 229.843C217.398 237.881 210.359 242.221 210.359 242.221C210.359 242.221 197.952 250.38 182.801 247.543L173.615 245.821C173.271 246.114 165.641 252.429 154.819 247.756C143.75 242.968 80.5908 217.132 80.5908 217.132C80.5908 217.132 61.0076 210.025 58.7743 185.527C58.1025 178.201 60.8181 173.402 63.6313 170.468C63.9528 170.129 64.2743 169.813 64.5958 169.526L64.6303 169.492C64.6599 169.46 64.6926 169.431 64.7279 169.406L64.814 169.325C66.0761 168.199 67.503 167.271 69.0453 166.575C69.0453 166.575 88.6801 157.929 104.405 137.617C112.701 126.904 120.94 118.097 129.058 112.407C139.834 104.817 151.334 99.857 159.486 95.8784L172.605 89.1555C174.571 88.1554 176.633 87.3553 178.759 86.7671C186.728 84.419 201.724 82.4153 219.418 91.739C244.467 104.909 272.094 141.291 266.858 184.063Z" fill="#F2EACD" stroke="#442508" stroke-width="3.44471" stroke-miterlimit="10"/>
<path d="M177.692 237.278C177.221 240.471 175.812 243.453 173.644 245.844C173.3 246.137 165.67 252.452 154.848 247.779C143.779 242.991 80.6198 217.155 80.6198 217.155C80.6198 217.155 61.0366 210.048 58.8033 185.55C58.1316 178.224 60.8472 173.425 63.6604 170.491L64.6249 169.549L64.6593 169.515L64.7569 169.429L64.843 169.348C66.5597 167.998 68.601 167.123 70.7624 166.811C72.9238 166.499 75.1293 166.76 77.1579 167.569C84.719 170.342 156.96 197.899 156.96 197.899C156.96 197.899 182.675 207.189 177.692 237.278Z" fill="#F2EACD" stroke="#442508" stroke-width="3.44471" stroke-miterlimit="10"/>
<path d="M229.925 117.454C229.631 117.656 229.318 117.827 228.989 117.965C225.47 119.457 220.722 116.564 213.419 110.501C198.882 98.3873 184.822 94.9426 174.718 94.4258H174.247C165.273 94.0297 159.526 95.9243 159.526 95.9243L159.458 95.8899L158.631 93.2891C161.834 92.715 166.278 92.0145 169.539 91.1247C170.756 90.7917 171.954 90.5046 173.133 90.2635C197.82 85.0964 213.993 98.2036 221.996 104.088C225.74 106.844 228.559 109.049 229.919 111.299C231.647 114.084 231.205 116.57 229.925 117.454Z" fill="#F2EACD" stroke="#442508" stroke-width="3.44471" stroke-miterlimit="10"/>
<path d="M228.989 117.966C225.47 119.459 220.722 116.565 213.419 110.503C198.653 98.1993 184.386 94.8407 174.247 94.4274C199.732 88.4738 223.351 108.625 227.41 113.482C229.064 115.406 229.305 116.893 228.989 117.966Z" fill="#F2EACD" stroke="#442508" stroke-width="1.14824" stroke-miterlimit="10"/>
<path d="M173.684 94.3976H173.213C164.24 94.0014 158.493 95.896 158.493 95.896L158.424 95.8616L157.62 93.3125L155.542 86.7388C155.542 86.7388 152.855 79.2064 159.819 77.0936C166.783 74.9809 168.89 81.6005 168.89 81.6005L172.139 90.2869L173.684 94.3976Z" fill="#F2EACD" stroke="#442508" stroke-width="1.72236" stroke-miterlimit="10"/>
<path d="M152.947 233.598C144.806 230.084 77.8751 202.745 77.8751 202.745C77.8751 202.745 67.3458 197.842 67.9199 184.574C68.4366 173.516 77.8636 177.288 77.8636 177.288L83.2201 179.372L86.0104 180.457L155.421 207.441C156.889 207.958 158.304 208.614 159.647 209.399C161.816 210.627 163.789 212.176 165.497 213.992C166.316 214.878 167.051 215.839 167.69 216.862C169.158 219.212 170.031 221.884 170.234 224.647C170.234 224.797 170.234 224.946 170.262 225.101C170.946 238.225 161.094 237.112 152.947 233.598Z" fill="#F2EACD" stroke="#442508" stroke-width="3.44471" stroke-miterlimit="10"/>
<path d="M170.234 224.647C163.976 228.798 159.9 227.225 159.9 227.225L160.233 215.875L165.486 214.009C168.242 216.906 169.918 220.662 170.234 224.647Z" fill="#F2EACD" stroke="#442508" stroke-width="3.44471" stroke-miterlimit="10"/>
<path d="M158.998 226.978C158.998 226.978 88.9558 198.978 86.7282 197.905C81.9228 195.608 77.9155 191.13 79.0695 184.189C79.2063 183.064 79.6752 182.004 80.4166 181.146C81.1579 180.289 82.138 179.671 83.2318 179.372L155.433 207.458C159.259 208.834 162.712 211.081 165.52 214.02C166.34 214.906 167.074 215.868 167.713 216.891C169.872 230.963 158.998 226.978 158.998 226.978Z" fill="#75400E" stroke="#442508" stroke-width="3.44471" stroke-miterlimit="10"/>
<path d="M157.959 221.715C157.959 221.715 94.0999 197.137 89.7366 195.225C85.3733 193.313 81.8655 188.64 83.5304 183.788C84.2136 181.802 85.3159 181.911 86.5101 181.911C86.5101 181.911 151.764 206.546 158.338 209.813C163.476 212.368 165.044 213.258 165.428 215.824C166.904 225.607 157.959 221.715 157.959 221.715Z" fill="#442508" stroke="#442508" stroke-width="1.10805" stroke-miterlimit="10"/>
<path d="M140.489 105.339C147.343 103.331 154.542 102.779 161.622 103.72C187.584 107.417 219.034 126.386 219.034 171.225C219.034 183.316 188.37 199.828 188.37 199.828" stroke="#442508" stroke-width="1.14824" stroke-miterlimit="10"/>
<path d="M212.736 235.917C204.474 226.588 173.644 245.821 173.644 245.821Z" fill="#F2EACD"/>
<path d="M212.736 235.917C204.474 226.588 173.644 245.821 173.644 245.821" stroke="#442508" stroke-width="1.14824" stroke-miterlimit="10"/>
<path d="M266.858 184.063C265.618 194.207 263.58 199.598 257.54 209.175C255.869 211.748 253.869 214.093 251.592 216.15C258.12 207.039 262.695 196.843 264.022 185.578C270.969 126.645 222.077 88.1102 196.523 86.2845C190.599 85.8936 184.652 86.057 178.759 86.7725C186.728 84.4244 201.724 82.4207 219.418 91.7444C244.467 104.909 272.094 141.291 266.858 184.063Z" fill="#F2EACD" stroke="#442508" stroke-width="1.14824" stroke-miterlimit="10"/>
</svg>
