<svg width="327" height="327" viewBox="0 0 327 327" fill="none" xmlns="http://www.w3.org/2000/svg">
<path d="M229.291 243.265C219.354 258.764 215.91 262.715 211.934 259C210.341 257.537 208.879 255.937 207.565 254.219C206.145 252.371 205.065 250.285 204.376 248.058C203.317 244.548 199.934 236.633 196.043 235.955L175.733 257.257C175.733 257.257 169.772 263.914 161.814 266.274C151.333 269.354 138.467 267.012 134.69 254.854C133.808 251.852 133.462 248.718 133.668 245.595C134.333 231.791 142.491 217.491 131.247 207.857C124.185 201.805 116.166 202.132 108.251 203.076C96.008 204.528 83.9409 207.403 75.7832 190.531C67.8252 174.07 80.5459 162.015 93.1818 156.726C93.1818 156.726 107.573 145.294 100.069 131.914C93.908 120.948 85.357 121.336 76.3763 113.36C73.627 110.886 71.2195 108.057 69.2171 104.948C64.1881 97.3226 71.5591 86.6353 82.3674 80.7409C91.445 75.8088 108.002 74.8768 118.018 74.2656C132.385 73.3881 133.631 73.5333 133.25 72.8677C131.913 70.5256 131.786 69.6845 131.804 68.8977C131.804 68.7707 131.804 68.6496 131.804 68.5286C131.858 63.5965 131.447 60.8611 132.361 59.5902C132.893 58.8398 133.879 58.5977 135.689 58.7067L170.789 60.8792C170.789 60.8792 194.536 64.5768 210.089 75.482L210.76 75.9601C221.061 83.3781 230.151 92.346 237.708 102.545C249.658 118.804 256.788 138.099 258.284 158.221C258.321 158.638 258.351 159.062 258.375 159.486C259.797 181.139 253.624 205.327 229.291 243.265Z" fill="#F2EACD" stroke="#442508" stroke-width="2.66137" stroke-miterlimit="10"/>
<path d="M229.69 174.73C228.571 177.078 226.222 191.632 226.664 204.728C227.106 217.824 225.756 233.171 219.56 245.008C213.508 256.639 207.813 254.291 207.595 254.201C206.176 252.352 205.096 250.266 204.406 248.04C203.347 244.53 199.964 236.614 196.073 235.937C190.705 233.383 181.004 238 173.791 247.259C166.577 256.518 157.07 264.023 146.782 261.711C136.657 259.441 133.765 246.061 133.662 245.595C134.327 231.791 142.485 217.491 131.241 207.857C124.179 201.805 116.16 202.132 108.245 203.076C103.446 202.592 97.6481 202.471 92.5889 201.926C83.0333 200.843 76.7274 188.497 77.4597 177.949C78.1677 167.571 92.7341 157.053 93.1941 156.726C93.1941 156.726 107.585 145.294 100.081 131.914C93.9203 120.948 85.3692 121.336 76.3885 113.359C72.7575 108.222 70.706 101.674 75.7047 95.1015C87.1605 80.0388 110.544 90.3449 128.294 86.968C135.217 85.6488 137.807 78.9072 133.262 72.8797C131.925 70.5377 131.798 69.6965 131.816 68.9098C131.816 68.7827 131.816 68.6616 131.816 68.5406C133.753 67.5239 137.868 67.8991 140.155 68.4983C162.547 74.2595 180.447 92.003 193.21 104.766C205.973 117.529 210.337 121.777 214.476 132.077C225.496 159.582 230.779 172.382 229.69 174.73Z" fill="#F2EACD" stroke="#442508" stroke-width="1.33068" stroke-miterlimit="10"/>
<path d="M210.046 75.5003C200.811 71.9903 187.388 72.777 178.281 71.8693C168.64 70.9312 156.495 65.4847 138.727 60.4739C136.662 59.8113 134.498 59.5084 132.33 59.5783C132.863 58.8279 133.849 58.5858 135.659 58.6947L170.758 60.8673C170.758 60.8673 194.493 64.5951 210.046 75.5003Z" fill="#F2EACD" stroke="#442508" stroke-width="1.33068" stroke-miterlimit="10"/>
<path d="M258.345 159.546C258.03 159.691 257.704 159.855 257.359 160.024C250.926 163.244 242.332 175.407 237.745 168.841C229.388 156.877 225.037 141.954 222.9 130.111C220.764 118.267 225.696 117.735 235.706 108.324C236.491 107.612 237.083 106.712 237.426 105.709C237.769 104.706 237.852 103.631 237.666 102.587C249.616 118.846 256.746 138.141 258.242 158.263C258.291 158.668 258.321 159.092 258.345 159.546Z" fill="#F2EACD" stroke="#442508" stroke-width="1.33068" stroke-miterlimit="10"/>
<path d="M178.753 107.339C178.529 109.995 175.54 109.227 173.161 108.168C172.139 107.709 171.149 107.183 170.196 106.594C170.196 106.594 164.368 103.865 163.055 99.0296C162.913 98.5219 162.8 98.0067 162.716 97.4864C162.159 93.8554 163.926 92.7782 168.338 94.3154H168.405C172.828 95.9009 177.918 101.499 178.692 105.844C178.78 106.337 178.8 106.84 178.753 107.339Z" fill="#442508" stroke="#442508" stroke-width="0.887123" stroke-miterlimit="10"/>
<path d="M191.709 138.408C190.106 137.609 188.684 136.538 188.308 135.915C187.177 134.099 186.19 129.784 186.19 129.784C185.949 129.11 185.789 128.409 185.712 127.696C185.585 126.486 185.773 125.088 187.062 124.574C188.125 124.235 189.278 124.32 190.281 124.81C192.787 125.863 195.691 128.864 197.162 134.71C197.253 135.073 197.325 135.412 197.374 135.721C198.136 140.411 194.59 139.86 191.709 138.408Z" fill="#442508" stroke="#442508" stroke-width="0.887123" stroke-miterlimit="10"/>
<path d="M214.93 153.749C214.784 153.586 214.645 153.41 214.518 153.235C212.703 150.681 209.247 144.284 209.247 144.284C208.935 143.082 208.733 141.855 208.642 140.617C208.563 139.358 208.672 138.093 209.247 137.428C209.822 136.762 211.002 136.974 212.346 138.033C214.325 139.6 216.685 143.037 218.149 148.321C218.473 149.431 218.704 150.567 218.839 151.716C219.323 156.369 216.576 155.583 214.93 153.749Z" fill="#442508" stroke="#442508" stroke-width="0.887123" stroke-miterlimit="10"/>
<path d="M202.487 171.045C202.487 171.045 206.058 174.476 208.115 172.146C210.173 169.816 209.762 160.612 203.31 156.291C196.859 151.97 202.487 171.045 202.487 171.045Z" fill="#442508" stroke="#442508" stroke-width="0.887123" stroke-miterlimit="10"/>
<path d="M194.53 190.108C194.205 191.554 193.339 192.821 192.109 193.648C191.487 194.079 190.748 194.311 189.991 194.311C189.234 194.311 188.495 194.079 187.873 193.648C187.369 193.308 186.936 192.874 186.596 192.371C186.596 192.371 185.155 191.542 183.987 183.79C183.927 183.378 183.885 182.985 183.866 182.616C183.528 177.127 187.316 176.037 190.523 178.089C191.231 178.54 191.866 179.098 192.405 179.741C194.85 182.543 195.431 186.906 194.53 190.108Z" fill="#442508" stroke="#442508" stroke-width="0.887123" stroke-miterlimit="10"/>
<path d="M215.463 206.223C214.512 211.542 210.694 213.092 208.582 210.338C208.43 210.147 208.292 209.945 208.17 209.733C205.804 205.497 206.022 200.117 206.022 200.117C205.95 198.611 206.049 197.103 206.318 195.62C206.675 193.805 207.414 192.068 208.939 191.608C209.297 191.506 209.673 191.477 210.043 191.522C210.413 191.568 210.77 191.688 211.093 191.874C213.314 193.036 215.36 196.891 215.662 202.658C215.736 203.85 215.669 205.047 215.463 206.223Z" fill="#442508" stroke="#442508" stroke-width="0.887123" stroke-miterlimit="10"/>
<path d="M157.312 147.322C156.428 150.65 152.591 152.012 149.251 151.237C148.595 151.091 147.962 150.857 147.369 150.541C146.697 150.19 145.408 149.652 145.408 149.652C145.408 149.652 142.612 145.585 142.824 141.694C142.865 140.709 143.141 139.748 143.629 138.892C144.785 136.913 148.047 136.078 151.145 137.076C152.512 137.542 153.751 138.321 154.762 139.352C155.773 140.383 156.528 141.637 156.967 143.013C157.519 144.38 157.639 145.884 157.312 147.322Z" fill="#442508" stroke="#442508" stroke-width="0.887123" stroke-miterlimit="10"/>
<path d="M170.644 125.524C170.287 128.048 168.048 129.548 164.169 128.392C163.641 128.234 163.124 128.044 162.619 127.824C160.392 126.861 158.504 123.497 158.504 123.497C158.504 123.497 156.689 121.33 156.392 118.994C156.281 118.38 156.324 117.748 156.518 117.154C156.711 116.561 157.048 116.024 157.5 115.593C158.891 114.256 161.058 114.195 163.255 115.067C166.286 116.343 168.709 118.738 170.02 121.754C170.565 122.931 170.781 124.234 170.644 125.524Z" fill="#442508" stroke="#442508" stroke-width="0.887123" stroke-miterlimit="10"/>
<path d="M139.695 119.302C139.26 122.625 135.617 124.476 129.789 123.308C129.214 123.193 128.609 123.048 127.973 122.873C127.059 122.584 126.217 122.104 125.503 121.464C124.79 120.825 124.221 120.04 123.834 119.163C123.834 119.163 120.3 116.742 119.791 113.62C119.689 112.999 119.717 112.364 119.873 111.754C120.029 111.145 120.311 110.574 120.699 110.079C122.297 107.901 125.831 107.598 129.408 108.53C133.39 109.565 137.432 112.161 138.915 115.314C139.549 116.542 139.82 117.926 139.695 119.302Z" fill="#442508" stroke="#442508" stroke-width="0.887123" stroke-miterlimit="10"/>
<path d="M175.285 213.243C174.214 216.268 172.096 218.834 169.04 219.591C167.596 220.014 166.045 219.88 164.695 219.216C162.032 217.842 161.197 214.598 161.197 214.598L161.935 212.026C161.935 212.026 160.422 210.12 161.905 206.41C162.217 205.629 162.602 204.88 163.055 204.171C164.87 201.248 167.721 200.056 170.281 200.455C171.152 200.595 171.985 200.914 172.727 201.392C173.468 201.87 174.103 202.497 174.589 203.233C174.796 203.532 174.98 203.845 175.14 204.171C175.219 204.328 175.291 204.492 175.364 204.661C176.357 207.112 176.296 210.38 175.285 213.243Z" fill="#442508" stroke="#442508" stroke-width="0.887123" stroke-miterlimit="10"/>
<path d="M169.034 178.748C168.48 180.347 167.37 181.694 165.905 182.542C165.182 182.993 164.351 183.242 163.499 183.261C162.648 183.28 161.806 183.069 161.064 182.651C160.013 182.062 159.106 181.248 158.407 180.267C158.407 180.267 157.959 179.196 157.094 176.636C156.609 175.303 156.423 173.879 156.549 172.466C156.676 171.047 157.34 169.731 158.407 168.787C159.184 168.155 160.112 167.736 161.1 167.571C162.088 167.407 163.102 167.502 164.041 167.849C165.538 168.344 166.845 169.291 167.781 170.56C168.633 171.723 169.192 173.075 169.41 174.5C169.628 175.926 169.499 177.383 169.034 178.748Z" fill="#442508" stroke="#442508" stroke-width="0.887123" stroke-miterlimit="10"/>
<path d="M139.478 171.547C138.134 174.742 134.636 176.957 132.282 177.151C130.883 177.258 129.476 177.23 128.082 177.066C126.733 176.92 125.398 176.657 124.094 176.279L121.897 170.391C121.599 169.232 121.554 168.022 121.764 166.845C122.09 165.017 123.096 163.38 124.578 162.263C125.729 161.431 127.038 160.844 128.424 160.537C129.81 160.23 131.245 160.21 132.639 160.478C134.225 160.749 135.709 161.443 136.934 162.487C138.159 163.531 139.079 164.886 139.599 166.409C140.225 168.073 140.181 169.914 139.478 171.547Z" fill="#442508" stroke="#442508" stroke-width="0.887123" stroke-miterlimit="10"/>
<path d="M139.477 171.547C136.282 173.078 131.822 175.226 128.082 177.066C125.177 178.494 122.72 179.735 121.637 180.358C118.079 182.403 119.719 180.612 116.36 182.627C113.001 184.642 107.192 189.157 104.535 182.887C101.878 176.618 107.869 176.164 110.224 174.046C111.618 172.788 113.178 171.725 114.859 170.887L121.764 166.844L132.657 160.478C134.243 160.749 135.727 161.443 136.952 162.487C138.177 163.531 139.097 164.886 139.617 166.409C140.237 168.075 140.187 169.916 139.477 171.547Z" fill="#F2EACD" stroke="#442508" stroke-width="0.887123" stroke-miterlimit="10"/>
<path d="M169.033 178.748C166.613 179.916 163.666 181.362 161.051 182.663C158.298 184.031 155.938 185.235 155.066 185.756C152.464 187.311 153.329 186.258 149.535 188.497C145.74 190.736 141.813 192.061 139.023 188.315C136.233 184.569 142.497 183.426 144.784 180.636C147.072 177.846 149.172 177.005 149.172 177.005L156.537 172.466L164.029 167.849C165.525 168.344 166.832 169.291 167.769 170.56C168.623 171.722 169.184 173.073 169.404 174.499C169.624 175.924 169.497 177.382 169.033 178.748Z" fill="#F2EACD" stroke="#442508" stroke-width="0.887123" stroke-miterlimit="10"/>
<path d="M175.285 213.243C172.296 214.937 168.023 217.358 164.695 219.216L161.996 220.723C156.906 223.543 147.569 230 143.647 226.884C138.473 222.78 148.446 220.172 149.838 216.965C150.564 215.148 151.802 213.582 153.402 212.456L161.905 206.405L170.281 200.45C171.152 200.589 171.985 200.908 172.727 201.386C173.468 201.864 174.103 202.491 174.589 203.227L175.364 204.656C176.357 207.113 176.296 210.381 175.285 213.243Z" fill="#F2EACD" stroke="#442508" stroke-width="0.887123" stroke-miterlimit="10"/>
<path d="M215.462 206.223C213.49 207.433 211.081 208.843 208.582 210.338C201.386 214.635 193.38 219.415 192.466 219.893C190.778 220.807 184.308 221.485 186.094 218.592C187.879 215.7 193.216 211.675 193.216 211.675C192.242 206.465 195.298 204.238 195.298 204.238L206.318 195.602L211.093 191.856C213.314 193.018 215.36 196.873 215.662 202.64C215.737 203.838 215.67 205.041 215.462 206.223Z" fill="#F2EACD" stroke="#442508" stroke-width="0.887123" stroke-miterlimit="10"/>
<path d="M139.695 119.302C136.5 120.591 132.929 122.032 129.788 123.309C125.607 124.997 122.181 126.401 121.358 126.764C118.938 127.835 115.966 128.386 113.987 127.787C112.008 127.188 111.894 127.03 109.751 127.714C106.005 128.924 102.604 131.593 101.654 128.374C100.171 123.333 105.467 121.203 105.467 121.203L119.785 113.62L129.401 108.53C133.383 109.565 137.426 112.161 138.908 115.314C139.545 116.542 139.818 117.925 139.695 119.302Z" fill="#F2EACD" stroke="#442508" stroke-width="0.887123" stroke-miterlimit="10"/>
<path d="M170.644 125.524L164.168 128.392C160.186 130.147 156.416 131.793 154.734 132.495C150.395 134.311 147.472 130.353 147.472 130.353C147.472 130.353 139.03 134.262 138.394 133.379C136.512 130.77 140.682 127.932 140.682 127.932L156.392 119L163.255 115.072C166.286 116.348 168.709 118.743 170.02 121.759C170.564 122.935 170.779 124.236 170.644 125.524Z" fill="#F2EACD" stroke="#442508" stroke-width="0.887123" stroke-miterlimit="10"/>
<path d="M178.668 105.868L173.161 108.167C168.38 110.158 163.297 112.264 161.143 113.112C156.573 114.927 154.933 112.168 154.933 112.168C154.933 112.168 149.081 115.666 144.9 113.862C138.182 110.963 146.074 106.685 146.074 106.685L162.716 97.4862L168.405 94.3394C172.804 95.9249 177.918 101.523 178.668 105.868Z" fill="#F2EACD" stroke="#442508" stroke-width="0.887123" stroke-miterlimit="10"/>
<path d="M197.374 135.721L191.71 138.407C188.212 140.072 184.514 141.833 183.491 142.341C181.428 143.37 180.641 142.777 180.641 142.777C177.083 144.592 172.871 147.685 168.538 144.054C164.205 140.423 170.426 137.324 170.426 137.324L185.7 127.696L190.269 124.809C192.775 125.862 195.68 128.864 197.15 134.71C197.253 135.073 197.326 135.412 197.374 135.721Z" fill="#F2EACD" stroke="#442508" stroke-width="0.887123" stroke-miterlimit="10"/>
<path d="M194.53 190.108L187.934 193.624L172.157 202.011C172.157 202.011 168.338 204.22 166.105 200.801C166.105 200.801 164.356 199.318 172.23 195.1C172.23 195.1 172.689 190.35 176.532 187.651C177.979 186.64 180.871 184.661 183.927 182.591L190.584 178.065C191.292 178.516 191.927 179.073 192.466 179.717C194.851 182.543 195.432 186.906 194.53 190.108Z" fill="#F2EACD" stroke="#442508" stroke-width="0.887123" stroke-miterlimit="10"/>
<path d="M204.454 157.18L200.261 160.06C195.897 163.056 190.451 166.808 189.858 167.268C188.847 168.055 189.404 169.568 189.404 169.568C181.99 174.409 180.556 178.675 182.378 180.697C184.199 182.718 188.381 180.364 188.381 180.364L203.916 172.152L209.132 169.398" fill="#F2EACD"/>
<path d="M204.454 157.18L200.261 160.06C195.897 163.056 190.451 166.808 189.858 167.268C188.847 168.055 189.404 169.568 189.404 169.568C181.99 174.409 180.556 178.675 182.378 180.697C184.199 182.718 188.381 180.364 188.381 180.364L203.916 172.152L209.132 169.398" stroke="#442508" stroke-width="0.887123" stroke-miterlimit="10"/>
<path d="M218.839 151.746L214.93 153.749L199.014 161.894C199.014 161.894 191.885 166.173 189.016 161.114C185.827 155.504 190.929 152.835 192.932 151.431L208.624 140.598L212.346 138.02C214.325 139.588 216.685 143.025 218.149 148.308C218.475 149.433 218.706 150.582 218.839 151.746Z" fill="#F2EACD" stroke="#442508" stroke-width="0.887123" stroke-miterlimit="10"/>
<path d="M157.312 147.322L149.251 151.237C146.522 152.575 143.847 153.888 141.759 154.923C138.237 156.678 137.214 156.411 136.857 156.345C135.241 156.03 132.929 157.222 129.746 158.578C127.652 159.468 125.068 158.306 125.347 155.552C125.498 154.118 125.788 151.963 128.736 150.057C132.718 147.479 138.146 144.332 142.824 141.688C146.334 139.715 149.42 138.026 151.145 137.088C152.512 137.554 153.751 138.333 154.762 139.364C155.773 140.395 156.528 141.649 156.967 143.025C157.516 144.389 157.637 145.888 157.312 147.322Z" fill="#F2EACD" stroke="#442508" stroke-width="0.887123" stroke-miterlimit="10"/>
<path d="M118.272 123.406C118.272 123.406 117.74 119.896 114.066 121.439C110.393 122.982 104.904 125.838 104.323 127.297C103.742 128.755 104.323 128.973 105.927 128.332L110.29 126.625C111.608 125.988 113.109 125.841 114.526 126.207C117.129 126.788 118.587 125.154 118.272 123.406Z" fill="#75400E"/>
<path d="M148.325 130.038C148.325 130.038 151.689 132.071 152.718 130.692C153.644 129.481 151.835 128.077 150.158 128.937C149.523 129.262 148.91 129.63 148.325 130.038Z" fill="#75400E"/>
<path d="M134.449 149.773L129.268 152.659C129.268 152.659 127.52 153.549 127.52 155.231C127.52 157.089 128.585 157.573 130.176 156.702C131.768 155.83 135.726 154.239 137.438 154.239C139.151 154.239 140.694 152.308 139.526 150.148C138.358 147.987 135.435 149.258 134.449 149.773Z" fill="#75400E"/>
<path d="M115.846 180.842L110.091 183.553C110.091 183.553 107.107 185.06 106.006 181.671C104.904 178.282 109.316 176.618 110.793 175.837C112.269 175.057 115.029 172.454 117.298 173.477C119.568 174.5 120.227 178.318 118.859 179.172C117.492 180.025 115.846 180.842 115.846 180.842Z" fill="#75400E"/>
<path d="M146.056 181.938C144.627 183.511 141.493 185.115 141.493 185.115C141.493 185.115 138.957 186.821 141.493 188.358C144.028 189.896 147.544 187.324 149.118 186.289C150.691 185.254 154.238 184.31 152.362 181.223C150.722 178.518 147.478 180.358 146.056 181.938Z" fill="#75400E"/>
<path d="M150.509 218.374L145.365 222.284C145.365 222.284 142.739 224.372 146.667 224.91C149.22 225.261 152.537 223.052 155.968 220.722C155.968 220.722 159.926 217.697 156.228 215.143C153.608 213.321 152.676 216.728 150.509 218.374Z" fill="#75400E"/>
<path d="M194.408 210.901C194.408 210.901 193.858 205.63 196.43 206.532C196.644 206.614 196.838 206.74 197.001 206.902C197.163 207.063 197.291 207.257 197.375 207.47C197.459 207.683 197.498 207.912 197.49 208.141C197.481 208.37 197.425 208.595 197.325 208.801C196.932 209.491 195.764 210.114 194.408 210.901Z" fill="#75400E"/>
<path d="M174.498 192.292C174.534 189.817 178.311 189.872 178.208 192.292C178.105 194.713 169.875 199.488 168.089 199.409C166.304 199.33 174.425 196.347 174.498 192.292Z" fill="#75400E"/>
<path d="M156.343 111.617C156.343 111.617 158.934 109.965 158.764 111.314C158.595 112.664 155.551 112.065 156.343 111.617Z" fill="#75400E"/>
</svg>
